<svg xmlns="http://www.w3.org/2000/svg" version="1.1" xmlns:xlink="http://www.w3.org/1999/xlink" width="1000" height="1000"><style>
    #light-icon {
      display: inline;
    }
    #dark-icon {
      display: none;
    }

    @media (prefers-color-scheme: dark) {
      #light-icon {
        display: none;
      }
      #dark-icon {
        display: inline;
      }
    }
  </style><g id="light-icon"><svg xmlns="http://www.w3.org/2000/svg" version="1.1" xmlns:xlink="http://www.w3.org/1999/xlink" width="1000" height="1000"><g clip-path="url(#SvgjsClipPath1293)"><rect width="1000" height="1000" fill="#ffffff"></rect><g transform="matrix(2.9429693736949156,0,0,2.9429693736949156,200,205.62501508271805)"><svg xmlns="http://www.w3.org/2000/svg" version="1.1" width="203.87572" height="200.05304" viewBox="0 0 203.87572 200.05304" preserveAspectRatio="xMidYMid" id="svg1" xmlns:svg="http://www.w3.org/2000/svg"><defs id="defs1">
    <clipPath clipPathUnits="userSpaceOnUse" id="clipPath5">
      <path id="lpe_path-effect5" class="powerclip" d="M 93.115189,44.694706 H 306.99091 V 254.74775 H 93.115189 Z M 0,293.5 V 587 h 199.892 199.891 l 0.549,-2.25 c 0.301,-1.237 399.661,-291.759 399.661,-291.759 l 0.257,146.754 C 800.41815,536.00117 800.52173,567.8201 801,0 H 400.5 0 v 293.5 m 0.493,0.5 c 0,161.425 0.116,227.462 0.257,146.75 0.141,-80.713 0.141,-212.788 0,-293.5 C 0.609,66.537 0.493,132.575 0.493,294 M 578.303,56.197 c -2.629,1.27 -4.053,4.129 -9.182,18.437 -2.143,5.976 -5.79,16.041 -8.104,22.366 -2.314,6.325 -6.382,17.575 -9.04,25 -2.658,7.425 -7.117,19.699 -9.908,27.276 -4.801,13.033 -5,13.953 -3.695,17.077 2.232,5.341 5.109,5.955 25.632,5.47 9.897,-0.233 17.994,-0.296 17.994,-0.139 0,0.296 -8.661,24.762 -12.115,34.222 -1.438,3.938 -1.674,5.703 -0.87,6.5 0.803,0.796 0.905,0.573 0.374,-0.82 -0.439,-1.154 -0.344,-1.676 0.241,-1.315 0.533,0.33 1.501,-0.25 2.149,-1.289 0.747,-1.196 0.82,-2.112 0.201,-2.495 -0.539,-0.333 -0.98,-1.055 -0.98,-1.605 0,-0.55 0.401,-0.752 0.89,-0.45 0.916,0.566 2.422,-2.226 5.898,-10.932 2.887,-7.233 9.212,-24.39 9.212,-24.989 0,-0.281 -9.188,-0.511 -20.418,-0.511 -11.23,0 -21.143,-0.278 -22.028,-0.618 -3.939,-1.511 -3.671,-3.759 2.496,-20.938 3.307,-9.214 5.847,-17.246 5.644,-17.849 -0.203,-0.602 0.181,-1.545 0.854,-2.095 1.225,-1.001 7.012,-16.098 18.402,-48 3.752,-10.51 6.871,-17.668 8.17,-18.75 1.31,-1.091 3.781,-1.75 6.562,-1.75 2.632,0 5.076,-0.615 5.961,-1.5 1.333,-1.333 0.742,-1.492 -5.322,-1.432 -3.751,0.037 -7.81,0.545 -9.018,1.129 m 59.609,-0.47 c 1.867,0.352 2.093,0.657 1,1.348 -0.929,0.589 0.486,0.9 4.138,0.91 5.864,0.016 7.95,1.163 7.95,4.372 0,1.736 -13.591,28.889 -25.64,51.225 -2.398,4.445 -4.36,8.383 -4.36,8.75 0,0.367 8.749,0.668 19.443,0.668 18.775,0 19.495,0.074 20.953,2.155 1.976,2.822 1.386,3.865 -9.246,16.345 -6.672,7.831 -7.732,10.572 -1.355,3.5 0.944,-1.046 1.137,-1.083 0.64,-0.12 -1.742,3.369 2.513,-0.063 8.313,-6.705 6.97,-7.981 8.006,-11.915 4.213,-15.986 -2.414,-2.592 -1.382,-2.481 -21.211,-2.276 -8.663,0.089 -15.75,-0.148 -15.75,-0.528 0,-0.38 3.094,-6.585 6.876,-13.788 19.165,-36.507 21.441,-41.499 20.47,-44.886 -1.215,-4.236 -4.482,-5.707 -12.346,-5.56 -3.575,0.067 -5.415,0.326 -4.088,0.576 M 178.2,62.2 c -0.66,0.66 -1.2,1.529 -1.2,1.932 0,0.402 -7.695,20.9 -17.099,45.55 -9.405,24.65 -17.931,47.181 -18.947,50.068 L 139.108,165 H 161.054 183 l -0.014,-4.25 c -0.022,-6.912 -0.851,-8.75 -3.948,-8.75 -3.195,0 -6.038,-2.744 -6.038,-5.829 0,-1.991 1.116,-3.423 5.428,-6.96 2.453,-2.013 1.877,-6.422 -1.989,-15.214 -5.456,-12.409 -4.259,-15.032 7.639,-16.744 4.569,-0.658 5.689,-1.268 7.638,-4.16 3.171,-4.706 2.921,-5.376 -1.716,-4.593 l -4,0.676 v -5.195 c 0,-4.342 0.262,-5.095 1.593,-4.584 0.876,0.336 2.75,0.902 4.164,1.257 2.159,0.542 2.464,0.366 1.903,-1.097 -2.439,-6.356 -2.32,-6.557 3.848,-6.557 5.264,0 5.676,0.161 5.109,2 -2.019,6.548 -2.018,6.34 -0.025,5.771 1.049,-0.299 2.695,-0.868 3.658,-1.265 1.533,-0.631 1.75,-0.082 1.75,4.432 v 5.153 l -3.609,-0.677 c -3.45,-0.648 -3.577,-0.572 -2.885,1.704 1.279,4.209 4.346,6.604 9.305,7.268 2.579,0.345 5.908,1.263 7.398,2.04 2.7,1.408 2.721,1.392 6.12,-4.757 4.668,-8.443 21.003,-39.71 21.889,-41.896 C 246.896,61.097 245.096,61 213.168,61 188.237,61 179.086,61.314 178.2,62.2 m 402.951,2.55 c -2.172,5.47 -10.471,28.181 -17.632,48.25 -4.023,11.275 -9.836,27.202 -12.917,35.394 -3.081,8.191 -5.602,15.054 -5.602,15.25 0,0.196 9.703,0.356 21.561,0.356 h 21.562 l -0.636,-4.75 c -0.915,-6.834 -1.146,-7.25 -4.021,-7.25 -7.133,0 -8.649,-5.231 -3.012,-10.394 4.332,-3.968 4.815,-8.302 1.618,-14.509 -3.79,-7.355 -5.156,-12.071 -4.08,-14.081 1.09,-2.037 5.989,-4.016 9.942,-4.016 1.848,0 3.147,-0.867 4.35,-2.904 2.218,-3.755 2.168,-4.12 -0.534,-3.834 -2.07,0.219 -2.274,-0.221 -2.55,-5.512 -0.294,-5.637 -0.248,-5.75 2.367,-5.75 2.134,0 2.566,-0.382 2.166,-1.914 -0.345,-1.32 0.115,-2.074 1.484,-2.432 1.091,-0.286 1.687,-1 1.325,-1.587 C 596.179,84.48 596.359,84 596.941,84 c 1.226,0 0.987,-2.191 -0.345,-3.154 -0.498,-0.36 -1.242,-3.136 -1.653,-6.169 -0.412,-3.033 -1.048,-6.877 -1.413,-8.541 l -0.665,-3.027 5.318,-0.369 c 2.924,-0.204 0.534,-0.453 -5.312,-0.555 L 582.243,62 l -1.092,2.75 m 41.599,-2.044 c 1.237,0.238 3.263,0.238 4.5,0 1.237,-0.239 0.225,-0.434 -2.25,-0.434 -2.475,0 -3.487,0.195 -2.25,0.434 m 13.855,0.011 c -1.523,0.39 -1.621,0.659 -0.5,1.369 1.005,0.636 0.626,0.888 -1.355,0.899 -2.021,0.011 -2.75,0.514 -2.75,1.898 0,1.081 -0.908,2.121 -2.13,2.441 -1.447,0.378 -1.933,1.069 -1.517,2.154 0.361,0.94 0.003,1.832 -0.87,2.167 -0.816,0.313 -1.483,1.646 -1.483,2.962 0,1.316 -0.406,2.393 -0.901,2.393 -0.995,0 -5.523,6.911 -5.57,8.5 -0.016,0.55 -0.824,1.593 -1.796,2.318 -0.971,0.726 -1.49,1.766 -1.152,2.313 0.338,0.547 -0.036,1.754 -0.831,2.682 -2.136,2.492 -2.731,4.806 -1.542,5.995 0.737,0.737 -0.101,1.269 -2.787,1.773 -3.686,0.691 -3.741,0.759 -1.38,1.684 1.442,0.565 1.942,1.157 1.209,1.432 -2.404,0.903 -1.216,2.149 3,3.148 2.337,0.553 5.15,1.284 6.25,1.623 1.763,0.544 3.451,-2.217 14.234,-23.275 6.729,-13.14 11.942,-24.184 11.584,-24.542 -0.726,-0.726 -6.782,-0.684 -9.713,0.066 M 598,90.383 c 0,0.211 1.125,0.599 2.5,0.862 1.375,0.263 2.5,0.09 2.5,-0.384 0,-0.473 -1.125,-0.861 -2.5,-0.861 -1.375,0 -2.5,0.173 -2.5,0.383 m 1,4.117 c 0,0.642 0.6,1.167 1.333,1.167 0.734,0 1.334,-0.525 1.334,-1.167 0,-0.642 -0.6,-1.167 -1.334,-1.167 -0.733,0 -1.333,0.525 -1.333,1.167 m -6,2.5 c 0,1.1 0.45,2 1,2 0.55,0 1,-0.702 1,-1.559 0,-0.857 0.45,-1.281 1,-0.941 0.55,0.34 1,0.141 1,-0.441 0,-0.582 -0.9,-1.059 -2,-1.059 -1.333,0 -2,0.667 -2,2 m 5.667,3.667 c -0.995,0.995 -0.805,3.333 0.271,3.333 0.516,0 0.87,-0.9 0.787,-2 -0.17,-2.26 -0.153,-2.239 -1.058,-1.333 M 595,107.905 c 0,0.815 7.909,0.334 8.917,-0.543 0.229,-0.199 -1.684,-0.362 -4.25,-0.362 -2.567,0 -4.667,0.407 -4.667,0.905 m -408.5,3.592 c -0.55,0.187 -2.738,0.631 -4.862,0.987 -3.55,0.596 -3.818,0.865 -3.32,3.332 0.93,4.609 6.801,16.178 8.276,16.309 0.773,0.069 2.081,0.125 2.906,0.125 0.825,0 5.571,-0.056 10.546,-0.125 l 9.046,-0.125 4.05,-8.44 c 2.227,-4.642 3.778,-8.881 3.445,-9.419 -1.056,-1.709 -10.372,-3.144 -19.886,-3.062 -5.061,0.043 -9.651,0.232 -10.201,0.418 m 398.191,1.225 c -1.545,0.232 -3.044,1.034 -3.33,1.781 -0.287,0.747 1.307,5.208 3.543,9.914 l 4.064,8.555 11.507,-0.236 11.507,-0.236 4.181,-8.744 c 2.3,-4.81 3.915,-9.012 3.588,-9.338 -2.029,-2.029 -25.341,-3.157 -35.06,-1.696 m 16.492,1.144 c -0.814,0.516 1.453,1.092 5.942,1.509 3.992,0.371 7.427,0.844 7.634,1.05 0.206,0.207 -0.722,2.558 -2.062,5.226 -1.341,2.667 -2.722,5.974 -3.07,7.349 -0.348,1.375 0.919,-0.65 2.816,-4.5 1.896,-3.85 3.472,-7.491 3.502,-8.092 0.118,-2.338 -11.836,-4.397 -14.762,-2.542 m 0.317,2.899 c 1.072,0.788 1.363,6.083 0.425,7.735 -0.313,0.55 -0.27,2.35 0.094,4 l 0.662,3 1.139,-2.761 c 0.626,-1.518 0.984,-4.085 0.796,-5.704 -0.189,-1.619 0.082,-2.852 0.601,-2.74 0.519,0.113 1.638,-0.808 2.485,-2.045 1.525,-2.226 1.495,-2.25 -2.83,-2.235 -2.405,0.009 -3.922,0.346 -3.372,0.75 m 6.55,6.785 c -1.711,3.697 -2.873,6.961 -2.581,7.253 0.718,0.717 0.785,0.602 3.88,-6.689 3.642,-8.577 2.616,-9.023 -1.299,-0.564 m -392.732,5.7 c -1.484,3.327 -0.776,9.075 1.262,10.247 0.959,0.551 2.61,1.829 3.669,2.84 3.472,3.314 0.297,9.663 -4.833,9.663 -3.007,0 -3.432,1.642 -3.316,12.832 0.174,16.904 -1.181,17.45 21.019,-8.464 10.775,-12.577 20.821,-24.331 22.325,-26.118 l 2.734,-3.25 h -20.929 c -20.739,0 -20.937,0.02 -21.931,2.25 m 402.009,0 c -1.583,4.411 -0.95,9.145 1.506,11.25 1.283,1.1 3.486,3.012 4.896,4.25 2.65,2.327 4.271,2.864 4.271,1.417 0,-0.459 0.675,-0.834 1.5,-0.834 0.825,0 1.5,0.402 1.5,0.893 0,0.49 0.563,0.541 1.25,0.113 1.771,-1.105 5.75,-1.202 5.75,-0.141 0,1.099 3.046,0.655 4.787,-0.698 C 645.081,143.717 658,128.73 658,127.852 658,127.383 649.03,127 638.067,127 c -19.765,0 -19.939,0.019 -20.74,2.25 m -30.103,6.307 c 0.858,0.858 25.777,1.044 25.776,0.193 0,-0.412 -5.925,-0.75 -13.167,-0.75 -7.241,0 -12.916,0.251 -12.609,0.557 M 184.638,138.5 c -0.493,1.286 1.277,1.5 12.393,1.5 10.861,0 12.969,-0.244 12.969,-1.5 0,-1.253 -2.044,-1.5 -12.393,-1.5 -10.094,0 -12.5,0.278 -12.969,1.5 m 401.921,2.032 c -1.879,1.421 -1.862,1.469 0.5,1.509 1.342,0.022 8.514,0.292 15.936,0.599 l 13.494,0.558 -1.899,-2.099 c -1.734,-1.915 -2.957,-2.096 -13.995,-2.067 -9.048,0.024 -12.584,0.402 -14.036,1.5 m -408.128,4.58 c -0.378,0.611 -0.115,1.465 0.584,1.897 1.155,0.714 37.016,0.185 37.835,-0.558 0.193,-0.175 0.054,-0.798 -0.309,-1.384 -0.93,-1.506 -37.178,-1.463 -38.11,0.045 m 402.691,0.792 c -0.758,0.48 -1.065,1.379 -0.682,1.998 0.474,0.768 6.008,1.1 17.378,1.043 11.839,-0.06 16.156,-0.378 14.871,-1.098 -0.996,-0.558 -2.499,-0.75 -3.34,-0.427 -0.841,0.322 -2.051,0.248 -2.689,-0.167 -0.638,-0.414 1.99,-1.011 5.84,-1.326 4.469,-0.366 0.31,-0.632 -11.5,-0.735 -10.175,-0.089 -19.12,0.231 -19.878,0.712 m -393.387,12.381 c 0.623,7.769 -1.145,14.548 -10.232,39.215 -11.401,30.95 -14.451,39.881 -13.12,38.417 0.708,-0.779 7.999,-9.25 16.202,-18.823 8.203,-9.574 18.157,-21.153 22.12,-25.731 7.089,-8.191 7.185,-8.377 6.001,-11.594 -0.695,-1.887 -1.205,-8.448 -1.205,-15.518 L 207.5,152.001 H 197.365 L 187.23,152 l 0.505,6.285 M 590.5,161.75 c 0,7.73 -0.466,10.949 -2.25,15.538 -2.69,6.92 -2.68,6.814 -0.586,6.011 1.208,-0.464 1.44,-0.276 0.846,0.686 -0.549,0.887 -0.433,1.085 0.352,0.6 0.644,-0.398 0.912,-1.142 0.595,-1.654 -0.316,-0.512 -0.129,-0.931 0.417,-0.931 0.545,0 1.3,-1.012 1.678,-2.25 0.377,-1.238 1.477,-4.05 2.442,-6.25 0.966,-2.2 2.311,-6.475 2.988,-9.5 0.677,-3.025 1.621,-6.261 2.096,-7.191 0.725,-1.416 0.259,-1.755 -2.856,-2.082 -2.047,-0.215 -0.347,-0.466 3.778,-0.559 L 607.5,154 v 8.25 c 0,4.537 0.311,11.175 0.692,14.75 0.529,4.967 0.444,5.91 -0.36,4 -0.578,-1.375 -1.289,-7.787 -1.579,-14.25 -0.512,-11.415 -0.593,-11.75 -2.81,-11.75 -2.253,0 -2.277,0.128 -1.812,9.718 0.259,5.344 0.673,9.919 0.92,10.166 0.247,0.247 0.513,-3.788 0.591,-8.967 l 0.143,-9.417 0.784,10 c 0.431,5.5 1.219,11.912 1.751,14.25 0.64,2.813 0.629,4.25 -0.033,4.25 -0.551,0 -0.733,0.698 -0.405,1.552 0.327,0.854 0.177,1.294 -0.333,0.978 -0.51,-0.315 -0.855,0.394 -0.766,1.577 0.142,1.879 0.642,1.608 3.98,-2.153 2.549,-2.872 3.586,-4.826 3.121,-5.878 -0.383,-0.867 -0.902,-7.763 -1.154,-15.326 L 609.773,152 h -9.636 -9.637 v 9.75 m 22.973,-3.343 c -0.626,5.843 -0.094,14.39 1.173,18.864 0.386,1.362 2.1,-0.121 7.428,-6.429 3.809,-4.51 6.926,-8.532 6.926,-8.937 0,-0.406 -1.318,-1.321 -2.928,-2.033 -1.61,-0.713 -2.73,-1.616 -2.489,-2.007 0.242,-0.391 -1.429,-1.533 -3.712,-2.538 l -4.151,-1.827 2.89,-0.632 c 2.745,-0.6 2.706,-0.637 -0.78,-0.75 l -3.671,-0.118 -0.686,6.407 m 27.932,-4.157 -1.905,2.25 2.25,-1.905 c 2.114,-1.79 2.705,-2.595 1.905,-2.595 -0.19,0 -1.202,1.012 -2.25,2.25 m -13.767,16.195 -11.488,13.445 1.76,5.812 c 2.045,6.755 3.376,9.461 5.535,11.253 0.855,0.709 1.555,2.228 1.555,3.375 0,1.147 1.665,3.791 3.7,5.875 3.011,3.083 3.769,4.674 4.07,8.542 0.204,2.614 0.609,6.89 0.901,9.503 l 0.53,4.75 -13.35,0.116 c -7.343,0.064 -12.451,0.337 -11.351,0.608 1.1,0.27 2.45,0.855 3,1.299 1.649,1.331 23.278,1.599 24.573,0.304 0.712,-0.712 0.929,-3.119 0.583,-6.48 -0.303,-2.941 -0.749,-7.458 -0.992,-10.037 -0.422,-4.475 -2.771,-8.994 -6.117,-11.771 -0.851,-0.706 -1.547,-2.067 -1.547,-3.024 0,-0.957 -1.286,-3.359 -2.859,-5.337 -1.572,-1.979 -3.449,-5.708 -4.171,-8.287 -1.548,-5.526 -1.45,-5.741 7.421,-16.388 3.24,-3.889 6.018,-8.227 6.174,-9.641 0.155,-1.413 1.295,-3.648 2.533,-4.966 1.238,-1.318 1.976,-2.396 1.639,-2.396 -0.336,0 -5.781,6.05 -12.099,13.445 m -24.325,10.296 c 0.131,2.333 -0.223,4.435 -0.787,4.672 -0.564,0.236 -0.449,0.465 0.255,0.508 1.859,0.115 2.281,-1.929 1.222,-5.921 l -0.928,-3.5 0.238,4.241 M 585,186 c 0,0.55 0.477,1 1.059,1 0.582,0 0.781,-0.45 0.441,-1 -0.34,-0.55 -0.816,-1 -1.059,-1 -0.243,0 -0.441,0.45 -0.441,1 m 26.62,2.806 c -0.334,0.54 0.07,2.899 0.897,5.244 1.636,4.636 1.19,6.939 -0.489,2.524 -0.565,-1.487 -1.028,-3.125 -1.028,-3.639 0,-0.514 -0.5,-0.935 -1.111,-0.935 -0.74,0 -0.881,1.253 -0.422,3.75 0.451,2.456 0.35,3.405 -0.292,2.75 -0.54,-0.55 -1.157,-1.9 -1.372,-3 -0.369,-1.888 -0.464,-1.867 -1.697,0.371 -1.029,1.869 -1.037,2.204 -0.036,1.586 0.9,-0.556 1.084,-0.3 0.631,0.879 -0.547,1.427 0.141,1.664 4.83,1.664 3.008,0 5.469,-0.145 5.469,-0.322 0,-1.026 -3.391,-10.317 -4.02,-11.015 -0.415,-0.461 -1.027,-0.396 -1.36,0.143 m -406.822,7.072 -5.703,6.622 8.077,0.292 c 4.442,0.161 8.255,0.114 8.474,-0.104 0.433,-0.433 -3.616,-11.799 -4.563,-12.81 -0.321,-0.342 -3.149,2.358 -6.285,6 M 583,192.059 c 0,0.582 0.45,0.781 1,0.441 0.55,-0.34 1,-0.816 1,-1.059 0,-0.243 -0.45,-0.441 -1,-0.441 -0.55,0 -1,0.477 -1,1.059 m 22,11.715 c 2.949,0.382 3.185,0.582 1.5,1.269 -1.282,0.524 0.961,0.842 6.25,0.887 6.698,0.057 8.25,-0.212 8.25,-1.43 0,-1.242 -1.679,-1.472 -9.75,-1.34 -5.362,0.088 -8.175,0.364 -6.25,0.614 m -416.916,11.476 -7.061,8.25 21.715,0.27 c 11.943,0.149 22.288,0.05 22.988,-0.218 2.493,-0.957 1.283,-5.42 -2.726,-10.052 -2.2,-2.542 -4,-5.044 -4,-5.561 0,-0.533 -5.157,-0.939 -11.927,-0.939 h -11.928 l -7.061,8.25 m 417.746,-6.521 c 2.384,0.293 3.175,0.816 2.782,1.84 -0.302,0.787 -0.21,1.431 0.204,1.431 0.414,0 1.528,1.312 2.474,2.915 1.312,2.22 1.423,3.035 0.466,3.421 -0.691,0.278 2.247,0.542 6.529,0.585 7.122,0.072 7.704,-0.07 6.836,-1.671 -1.473,-2.716 -7.121,-7.775 -7.121,-6.378 0,0.685 -0.45,0.968 -1,0.628 -0.55,-0.34 -1,-0.168 -1,0.382 0,0.55 0.45,1.278 1,1.618 0.55,0.34 1,0.072 1,-0.596 0,-0.753 0.759,-0.527 2,0.596 1.1,0.995 2,2.26 2,2.81 0,0.55 -0.976,0.143 -2.17,-0.905 -2.139,-1.879 -2.16,-1.877 -1.505,0.095 0.43,1.296 -0.39,0.782 -2.331,-1.462 -3.13,-3.62 -4.079,-6.183 -1.494,-4.038 0.825,0.685 1.5,0.801 1.5,0.259 0,-2.269 3.821,-0.468 7.389,3.484 5.398,5.979 4.57,7.094 -5.592,7.533 -8.16,0.352 -8.14,0.357 1.203,0.291 l 9.5,-0.067 0.31,-2.681 c 0.225,-1.948 -0.695,-3.793 -3.367,-6.75 l -3.676,-4.069 -9.633,0.16 c -5.299,0.088 -8.135,0.344 -6.304,0.569 M 567,214 c 0,0.55 0.477,1 1.059,1 0.582,0 0.781,-0.45 0.441,-1 -0.34,-0.55 -0.816,-1 -1.059,-1 -0.243,0 -0.441,0.45 -0.441,1 m 42.695,11.68 c 1.409,0.286 1.997,0.959 1.643,1.882 -0.457,1.19 1.121,1.438 9.128,1.438 8.681,0 9.646,-0.181 9.345,-1.75 -0.293,-1.53 -1.714,-1.767 -11.323,-1.882 -6.043,-0.073 -10,0.068 -8.793,0.312 m 8.666,1.014 c 0.729,0.729 8.757,0.521 9.526,-0.248 C 628.132,226.201 625.933,226 623,226 c -2.933,0 -5.021,0.312 -4.639,0.694 m -443.187,3.62 c -1.196,1.273 -2.174,2.623 -2.174,3 0,0.988 54.781,0.849 55.393,-0.14 0.281,-0.455 0.255,-1.805 -0.058,-3 -0.564,-2.159 -0.738,-2.174 -25.777,-2.174 -25.058,0 -25.222,0.014 -27.384,2.314 M 555.15,268.25 c 0.146,3.169 0.16,3.179 0.576,0.398 0.358,-2.391 0.814,-2.778 2.82,-2.394 1.316,0.251 2.156,0.072 1.865,-0.398 -0.291,-0.471 -1.627,-0.856 -2.97,-0.856 -2.118,0 -2.421,0.43 -2.291,3.25 m -403.071,2.5 c 0.087,5.228 0.572,4.805 1.148,-1 0.204,-2.062 0.012,-3.75 -0.428,-3.75 -0.439,0 -0.763,2.137 -0.72,4.75 m 454.213,-3.299 c -0.945,1.075 -0.937,1.599 0.037,2.407 0.929,0.771 1.295,0.414 1.446,-1.413 0.232,-2.806 0.155,-2.858 -1.483,-0.994 m 7.708,3.216 c 0,2.566 0.163,4.479 0.362,4.25 0.877,-1.008 1.358,-8.917 0.543,-8.917 -0.498,0 -0.905,2.1 -0.905,4.667 m 8.733,-0.417 c 0.744,5.831 1.267,6.003 1.267,0.417 0,-2.567 -0.407,-4.667 -0.905,-4.667 -0.498,0 -0.661,1.913 -0.362,4.25 m 12.058,-2.955 c -0.215,0.663 -0.089,2.78 0.278,4.705 l 0.668,3.5 0.131,-3.167 c 0.073,-1.741 0.538,-3.316 1.033,-3.5 0.496,-0.183 0.312,-0.875 -0.41,-1.538 -1.023,-0.941 -1.397,-0.941 -1.7,0 m -466.124,1.372 c -0.367,0.366 -0.66,1.154 -0.652,1.75 0.011,0.733 0.253,0.716 0.75,-0.051 0.404,-0.624 1.635,-1.359 2.735,-1.634 1.935,-0.484 1.932,-0.504 -0.083,-0.616 -1.146,-0.064 -2.384,0.184 -2.75,0.551 m 7.585,2.833 c 0.011,2.2 0.216,2.982 0.455,1.738 0.239,-1.244 0.23,-3.044 -0.02,-4 -0.25,-0.956 -0.446,0.062 -0.435,2.262 M 182,268.393 c 0,0.216 0.698,0.661 1.552,0.989 0.89,0.341 1.291,0.173 0.941,-0.393 -0.587,-0.951 -2.493,-1.406 -2.493,-0.596 m 11.851,0.276 c 1.952,0.412 2.279,0.992 1.924,3.414 -0.236,1.604 -0.028,2.917 0.462,2.917 0.489,0 0.749,-1.462 0.576,-3.25 -0.256,-2.662 -0.765,-3.28 -2.813,-3.414 -2.396,-0.157 -2.402,-0.143 -0.149,0.333 m 35.228,0.914 c 0.048,1.165 0.285,1.402 0.604,0.605 0.289,-0.722 0.253,-1.585 -0.079,-1.917 -0.332,-0.332 -0.568,0.258 -0.525,1.312 m 2.734,-0.9 c 0.721,0.289 1.584,0.253 1.916,-0.079 0.332,-0.332 -0.258,-0.568 -1.312,-0.525 -1.165,0.048 -1.402,0.285 -0.604,0.604 m 5.187,0.376 c 0,0.582 0.45,0.781 1,0.441 0.55,-0.34 1,-0.816 1,-1.059 0,-0.243 -0.45,-0.441 -1,-0.441 -0.55,0 -1,0.477 -1,1.059 m 327.252,2.441 c 0.011,2.2 0.216,2.982 0.455,1.738 0.239,-1.244 0.23,-3.044 -0.02,-4 -0.25,-0.956 -0.446,0.062 -0.435,2.262 m 4.906,-1.5 c 0,1.375 0.227,1.938 0.504,1.25 0.278,-0.687 0.278,-1.812 0,-2.5 -0.277,-0.687 -0.504,-0.125 -0.504,1.25 m 4.652,1.5 c -0.225,1.925 -0.049,3.5 0.391,3.5 0.439,0 0.799,-1.575 0.799,-3.5 0,-1.925 -0.176,-3.5 -0.391,-3.5 -0.214,0 -0.574,1.575 -0.799,3.5 m 4.94,-2.838 c 0.688,0.278 1.813,0.278 2.5,0 0.688,-0.277 0.125,-0.504 -1.25,-0.504 -1.375,0 -1.937,0.227 -1.25,0.504 M 643.71,270 c 0.288,1.1 0.696,2 0.907,2 0.21,0 0.383,-0.9 0.383,-2 0,-1.1 -0.408,-2 -0.906,-2 -0.499,0 -0.671,0.9 -0.384,2 m -479.552,2 c 0,1.375 0.227,1.938 0.504,1.25 0.278,-0.687 0.278,-1.812 0,-2.5 -0.277,-0.687 -0.504,-0.125 -0.504,1.25 m 49.406,-0.707 c 0.376,0.986 0.935,1.541 1.243,1.233 0.308,-0.307 0.001,-1.114 -0.683,-1.793 -0.988,-0.98 -1.102,-0.865 -0.56,0.56 m 3.515,0.29 c 0.048,1.165 0.285,1.402 0.604,0.605 0.289,-0.722 0.253,-1.585 -0.079,-1.917 -0.332,-0.332 -0.568,0.258 -0.525,1.312 m 376,0 c 0.048,1.165 0.285,1.402 0.604,0.605 0.289,-0.722 0.253,-1.585 -0.079,-1.917 -0.332,-0.332 -0.568,0.258 -0.525,1.312 m 8,0 c 0.048,1.165 0.285,1.402 0.604,0.605 0.289,-0.722 0.253,-1.585 -0.079,-1.917 -0.332,-0.332 -0.568,0.258 -0.525,1.312 M 184.158,273 c 0,1.375 0.227,1.938 0.504,1.25 0.278,-0.687 0.278,-1.812 0,-2.5 -0.277,-0.687 -0.504,-0.125 -0.504,1.25 m 401,0 c 0,1.375 0.227,1.938 0.504,1.25 0.278,-0.687 0.278,-1.812 0,-2.5 -0.277,-0.687 -0.504,-0.125 -0.504,1.25 M 229,273.5 c 0,0.825 0.436,1.5 0.969,1.5 0.532,0 0.709,-0.675 0.393,-1.5 -0.317,-0.825 -0.753,-1.5 -0.969,-1.5 -0.216,0 -0.393,0.675 -0.393,1.5 m 326.079,0.083 c 0.048,1.165 0.285,1.402 0.604,0.605 0.289,-0.722 0.253,-1.585 -0.079,-1.917 -0.332,-0.332 -0.568,0.258 -0.525,1.312 M 643.5,274 c -0.34,0.55 -0.141,1 0.441,1 0.582,0 1.059,-0.45 1.059,-1 0,-0.55 -0.198,-1 -0.441,-1 -0.243,0 -0.719,0.45 -1.059,1 m -467.824,91.25 c -1.887,1.383 -5.39,11.123 -28.919,80.418 -1.954,5.753 -1.986,6.334 -0.475,8.64 1.584,2.416 1.954,2.48 16.59,2.837 8.234,0.201 15.285,0.678 15.668,1.062 0.383,0.383 -3.187,12.081 -7.934,25.995 -4.747,13.914 -8.625,26.255 -8.618,27.426 0.029,5.008 6.515,5.586 9.614,0.856 L 173.23,510 h 24.014 24.014 l -0.676,-8.25 c -0.563,-6.859 -1.175,-8.971 -3.63,-12.529 -1.623,-2.354 -2.952,-4.764 -2.952,-5.356 0,-0.592 -1.098,-2.381 -2.439,-3.975 -1.347,-1.601 -2.739,-4.893 -3.107,-7.351 -0.666,-4.441 -0.647,-4.477 8.152,-15.245 C 240.251,428.358 243,424.742 243,422.578 c 0,-4.646 -2.519,-5.497 -17.171,-5.798 l -13.58,-0.28 10.444,-21.5 c 5.743,-11.825 10.696,-22.75 11.005,-24.277 0.381,-1.881 -0.014,-3.414 -1.223,-4.75 -1.692,-1.87 -3.177,-1.973 -28.439,-1.973 -19.746,0 -27.096,0.324 -28.36,1.25 m 1.637,1.536 c -1.544,0.981 -1.71,1.424 -14.011,37.214 -16.678,48.53 -16.267,47.197 -15.196,49.197 0.871,1.628 2.604,1.803 17.848,1.803 h 16.885 l -6.969,20.25 c -3.832,11.137 -8.071,23.314 -9.419,27.06 -1.348,3.745 -2.451,7.907 -2.451,9.25 0,3.461 3.201,3.179 6.347,-0.56 l 2.524,-3 h 23.166 23.166 l -0.693,-7.25 c -0.561,-5.874 -1.245,-7.951 -3.601,-10.941 -1.6,-2.031 -2.909,-4.252 -2.909,-4.936 0,-0.684 -0.858,-2.173 -1.906,-3.309 -2.251,-2.437 -5.356,-12.318 -4.381,-13.937 0.373,-0.62 6.553,-8.259 13.733,-16.975 C 235.518,431.14 241,423.986 241,422.526 241,419.532 238.406,419 223.8,419 c -8.14,0 -14.8,-0.22 -14.8,-0.488 0,-0.268 5.175,-11.122 11.5,-24.12 6.325,-12.997 11.5,-24.429 11.5,-25.405 0,-0.975 -0.712,-2.046 -1.582,-2.38 -2.299,-0.882 -51.699,-0.716 -53.105,0.179 m 0.805,4.464 c -1.002,2.705 -3.674,10.399 -10.333,29.75 C 156.722,433.148 151,450.223 151,451.088 c 0,0.511 7.03,0.912 16,0.912 15.93,0 16,-0.01 15.986,-2.25 -0.027,-4.507 -1.127,-6.376 -4.304,-7.312 -4.176,-1.231 -4.758,-4.673 -1.401,-8.296 3.782,-4.082 3.898,-6.557 0.644,-13.808 -4.418,-9.848 -3.941,-11.256 4.313,-12.745 2.129,-0.385 4.173,-1.489 4.75,-2.566 1.414,-2.643 1.29,-3.023 -0.988,-3.023 -1.704,0 -2,-0.667 -2,-4.5 0,-3.833 0.296,-4.5 2,-4.5 1.333,0 2,-0.667 2,-2 0,-1.733 0.667,-2 5,-2 4.333,0 5,0.267 5,2 0,1.111 0.667,2 1.5,2 1.13,0 1.5,1.212 1.5,4.906 0,4.507 -0.173,4.862 -2.12,4.352 -2.055,-0.537 -2.069,-0.475 -0.452,1.992 1.037,1.582 3.001,2.796 5.191,3.206 1.938,0.364 4.113,0.888 4.835,1.165 0.89,0.341 4.403,-5.82 10.929,-19.165 C 224.672,378.639 229,369.611 229,369.394 229,369.177 217.739,369 203.975,369 H 178.95 l -0.832,2.25 M 191.29,394 c 0.416,1.591 0.03,2 -1.884,2 -1.472,0 -2.406,0.582 -2.406,1.5 0,0.91 0.929,1.5 2.361,1.5 1.98,0 2.284,0.404 1.884,2.5 -0.389,2.035 -0.081,2.5 1.657,2.5 1.779,0 2.031,-0.418 1.509,-2.5 -0.55,-2.188 -0.302,-2.5 1.981,-2.5 1.652,0 2.608,-0.55 2.608,-1.5 0,-0.918 -0.934,-1.5 -2.406,-1.5 -1.914,0 -2.3,-0.409 -1.884,-2 0.408,-1.559 0.031,-2 -1.71,-2 -1.741,0 -2.118,0.441 -1.71,2 m -0.54,12.706 c 1.238,0.238 3.262,0.238 4.5,0 1.238,-0.239 0.225,-0.434 -2.25,-0.434 -2.475,0 -3.488,0.195 -2.25,0.434 m -11.086,3.961 c -2.196,0.613 -1.869,2.458 1.884,10.658 l 2.599,5.675 h 8.787 8.787 l 3.062,-7.25 c 1.991,-4.714 2.723,-7.6 2.092,-8.25 -1.004,-1.036 -23.968,-1.739 -27.211,-0.833 m 20.586,2.061 c 2.063,0.216 3.75,0.578 3.75,0.804 0,0.226 -1.1,2.899 -2.445,5.939 -1.345,3.041 -2.22,5.529 -1.945,5.529 1.008,0 5.505,-11.005 4.898,-11.987 -0.344,-0.557 -2.287,-0.937 -4.317,-0.845 l -3.691,0.168 3.75,0.392 m -0.571,4.818 c -2.349,4.927 -2.018,5.765 0.437,1.11 1.116,-2.115 1.852,-4.022 1.636,-4.238 -0.217,-0.216 -1.149,1.192 -2.073,3.128 m 6.319,6.458 c -1.465,2.737 0.329,9.11 3.038,10.793 3.41,2.119 2.287,6.438 -2.036,7.831 l -3.5,1.127 -0.308,6.873 c -0.169,3.779 -0.033,8.35 0.302,10.155 l 0.609,3.284 7.267,-8.784 C 227.589,435.679 237,423.797 237,422.923 237,422.4 230.517,422 222.035,422 c -13.952,0 -15.037,0.136 -16.037,2.004 M 183,428.941 c 0,0.675 3.63,1.059 10,1.059 5.5,0 10,-0.364 10,-0.809 0,-0.445 -4.5,-0.922 -10,-1.059 -6.528,-0.163 -10,0.118 -10,0.809 m -0.964,4.516 c -1.142,1.376 -0.013,1.543 10.425,1.543 8.92,0 11.607,-0.298 11.29,-1.25 -0.287,-0.862 -3.525,-1.341 -10.425,-1.543 -8.057,-0.236 -10.259,0.008 -11.29,1.25 M 178,438.5 c 0,1.267 2.333,1.5 15,1.5 12.667,0 15,-0.233 15,-1.5 0,-1.267 -2.333,-1.5 -15,-1.5 -12.667,0 -15,0.233 -15,1.5 m 22.762,0.207 c 1.244,0.239 3.044,0.23 4,-0.02 0.956,-0.25 -0.062,-0.446 -2.262,-0.435 -2.2,0.011 -2.982,0.216 -1.738,0.455 M 185.75,449.25 c 0.315,5.697 -0.448,8.582 -8.623,32.604 -5.011,14.722 -8.232,25.533 -7.298,24.494 0.919,-1.023 4.357,-5.233 7.639,-9.354 3.283,-4.122 7.333,-9.101 9,-11.065 1.668,-1.964 5.507,-6.613 8.532,-10.331 l 5.5,-6.761 v -12.912 -12.912 l -7.547,-0.006 -7.548,-0.007 0.345,6.25 m 5.957,-4.514 5.207,0.366 0.345,7.199 0.344,7.199 0.198,-7.75 0.199,-7.75 -5.75,0.185 -5.75,0.185 5.207,0.366 m 3.648,10.764 c -0.003,4.95 0.166,7.101 0.376,4.78 0.209,-2.321 0.212,-6.371 0.005,-9 -0.206,-2.629 -0.378,-0.73 -0.381,4.22 m 2.645,7.274 c 0,1.71 0.443,3.382 0.985,3.717 0.615,0.38 0.749,-0.63 0.356,-2.691 C 198.499,459.378 198,458.997 198,462.774 M 196,467 c 0,1.1 0.408,2 0.906,2 0.499,0 0.671,-0.9 0.384,-2 -0.288,-1.1 -0.696,-2 -0.907,-2 -0.21,0 -0.383,0.9 -0.383,2 m 5.758,5.575 c -0.316,0.317 -0.174,1.974 0.316,3.684 0.491,1.71 0.696,3.304 0.458,3.543 -0.239,0.239 -0.73,-0.744 -1.092,-2.184 -0.801,-3.194 -2.627,-3.513 -2.105,-0.368 0.205,1.238 0.174,1.654 -0.069,0.925 -0.343,-1.029 -0.87,-0.938 -2.354,0.405 -3.031,2.743 -2.3,3.42 3.695,3.42 4.946,0 5.523,-0.206 4.892,-1.75 -0.394,-0.962 -1.138,-3.212 -1.654,-5 -0.983,-3.401 -1.148,-3.613 -2.087,-2.675 M 191.5,485 c -0.395,0.639 2.656,1 8.441,1 5.373,0 9.059,-0.407 9.059,-1 0,-0.588 -3.48,-1 -8.441,-1 -4.643,0 -8.719,0.45 -9.059,1 m -6.867,8.5 -4.748,5.5 h 17.557 c 17.55,0 17.558,-10e-4 17.529,-2.25 -0.016,-1.238 -1.36,-3.712 -2.986,-5.5 -2.953,-3.245 -2.971,-3.25 -12.78,-3.25 h -9.824 l -4.748,5.5 m 24.117,-2.487 c 1.905,2.507 1.49,3.514 -0.651,1.577 -1.514,-1.37 -2.055,-1.453 -2.66,-0.405 -0.418,0.723 -0.387,0.977 0.07,0.563 0.456,-0.414 1.54,-0.108 2.41,0.679 0.869,0.787 2.02,1.429 2.556,1.427 0.536,-0.002 1.131,0.464 1.321,1.035 0.221,0.661 -3.411,1.158 -9.975,1.364 l -10.321,0.325 10.691,0.211 c 5.88,0.116 10.931,-0.177 11.224,-0.652 0.294,-0.475 -0.917,-2.417 -2.691,-4.316 -1.773,-1.899 -2.661,-2.713 -1.974,-1.808 m -31.61,11.247 c -0.627,0.627 -1.14,1.5 -1.14,1.94 0,0.44 9.033,0.8 20.073,0.8 18.58,0 20.049,-0.13 19.736,-1.75 -0.306,-1.584 -2.107,-1.768 -18.933,-1.94 -12.82,-0.131 -18.95,0.164 -19.736,0.95 m 30.333,0.784 c -0.325,0.526 0.336,0.956 1.468,0.956 2.415,0 2.658,-0.556 0.591,-1.349 -0.807,-0.31 -1.734,-0.133 -2.059,0.393 M 212,503 c 0,0.55 0.477,1 1.059,1 0.582,0 0.781,-0.45 0.441,-1 -0.34,-0.55 -0.816,-1 -1.059,-1 -0.243,0 -0.441,0.45 -0.441,1 m -50,56.7 c 0,5.889 1.556,6.462 2.173,0.8 l 0.327,-3 1.966,3.25 c 1.081,1.788 2.271,3.25 2.645,3.25 0.964,0 1.595,-7.858 0.742,-9.238 -0.39,-0.631 -0.854,0.601 -1.031,2.739 L 168.5,561.387 166,557.7 c -1.375,-2.027 -2.838,-3.689 -3.25,-3.693 -0.412,-0.004 -0.75,2.558 -0.75,5.693 m 40.571,-4.129 c -2.091,2.092 -1.983,4.698 0.312,7.532 1.661,2.052 2.189,2.185 4.5,1.132 3.191,-1.454 3.637,-5.235 0.617,-5.235 -2.463,0 -2.65,1.698 -0.25,2.272 1.667,0.399 1.667,0.455 0,1.18 -2.81,1.224 -4.75,-0.13 -4.75,-3.314 0,-3.144 1.814,-4.502 4.091,-3.061 2.209,1.399 3.28,1.075 1.909,-0.577 -1.614,-1.944 -4.444,-1.913 -6.429,0.071 m 9.739,3.929 c 0.005,3.3 0.192,4.529 0.415,2.732 0.222,-1.797 0.218,-4.497 -0.01,-6 -0.229,-1.503 -0.411,-0.032 -0.405,3.268 M 565,554.263 c 0,1.583 3.359,9.737 4.011,9.737 1.057,0 4.466,-8.857 3.703,-9.62 -0.317,-0.316 -1.123,1.254 -1.793,3.49 -1.359,4.536 -2.444,4.577 -3.421,0.13 -0.36,-1.637 -1.069,-3.234 -1.577,-3.548 C 565.415,554.139 565,554.053 565,554.263 M 613.18,559.25 613,565 h 3.059 c 1.785,0 2.802,-0.417 2.441,-1 -0.34,-0.55 -1.467,-1 -2.504,-1 -1.531,0 -1.957,-0.895 -2.261,-4.75 -0.37,-4.698 -0.376,-4.686 -0.555,1 M 620.5,555 c 0.34,0.55 0.816,1 1.059,1 0.243,0 0.441,-0.45 0.441,-1 0,-0.55 -0.477,-1 -1.059,-1 -0.582,0 -0.781,0.45 -0.441,1 m -29.606,1.211 c -0.261,3.171 0.354,7.372 1.209,8.258 0.582,0.603 0.684,-0.284 0.271,-2.351 -0.389,-1.943 -0.235,-3.59 0.37,-3.969 0.672,-0.422 0.548,-1.101 -0.355,-1.938 -1.134,-1.053 -1.408,-1.053 -1.495,0 m -417.656,1.951 c -3.128,3.128 0.103,7.959 4.036,6.032 l 2.226,-1.091 -2.39,0.198 c -1.314,0.11 -2.589,-0.363 -2.833,-1.051 -0.283,-0.798 0.518,-1.25 2.213,-1.25 1.991,0 2.573,-0.439 2.323,-1.75 -0.404,-2.123 -3.865,-2.798 -5.575,-1.088 m 8.429,-0.495 c -1.267,1.266 -0.663,6.121 0.833,6.695 3.51,1.347 6.283,-2.03 4.461,-5.434 -1.008,-1.885 -3.967,-2.589 -5.294,-1.261 m 7.333,3.5 c 0,4.247 1.131,4.663 1.584,0.583 0.137,-1.238 0.287,-2.587 0.333,-3 0.046,-0.413 0.731,-0.75 1.523,-0.75 0.934,0 1.562,1.316 1.79,3.75 0.266,2.849 0.547,3.329 1.168,1.998 0.45,-0.964 0.536,-2.876 0.191,-4.25 -0.493,-1.965 -1.263,-2.498 -3.608,-2.498 -2.831,0 -2.981,0.21 -2.981,4.167 m 26.713,-3.546 c -1.272,1.271 -0.754,5.1 0.871,6.449 2.28,1.892 4.916,-0.08 4.916,-3.679 0,-2.351 -0.474,-2.946 -2.537,-3.187 -1.396,-0.163 -2.859,0.025 -3.25,0.417 m 7.903,2.129 c 1.261,5.304 2.141,6.016 3.398,2.75 l 1.154,-3 1.225,2.963 c 1.366,3.305 2.082,2.712 2.977,-2.463 l 0.605,-3.5 -1.344,2.889 -1.345,2.888 -0.662,-2.638 c -0.811,-3.232 -2.164,-3.404 -3.058,-0.389 l -0.668,2.25 -0.917,-2.25 c -1.277,-3.136 -2.153,-2.815 -1.365,0.5 m 350.768,-1.308 c -1.464,3.815 2.375,8.289 4.838,5.638 1.054,-1.133 0.984,-1.271 -0.399,-0.787 -0.922,0.324 -2.215,-0.06 -2.872,-0.852 -0.998,-1.202 -0.678,-1.441 1.927,-1.441 3.31,0 3.885,-0.837 1.922,-2.8 -1.647,-1.647 -4.744,-1.509 -5.416,0.242 m 8.005,1.143 c -0.43,1.715 -0.126,3.106 0.904,4.136 1.649,1.649 4.707,1.121 4.707,-0.812 0,-0.863 -0.345,-0.867 -1.367,-0.019 -1.035,0.858 -1.648,0.797 -2.518,-0.251 -1.64,-1.977 -0.264,-4.911 2.023,-4.313 1.024,0.268 1.862,0.079 1.862,-0.42 0,-0.498 -1.116,-0.906 -2.481,-0.906 -1.834,0 -2.65,0.674 -3.13,2.585 m 13.278,-1.918 c -1.232,1.232 -0.682,5.076 0.917,6.403 3.117,2.587 7.024,-2.428 4.376,-5.618 -1.254,-1.511 -4.14,-1.939 -5.293,-0.785 m 8.483,3.583 c 0.117,3.335 0.238,3.604 0.562,1.25 0.227,-1.65 1.145,-3.562 2.041,-4.25 1.454,-1.115 1.393,-1.25 -0.562,-1.25 -1.935,0 -2.173,0.498 -2.041,4.25 M 621.272,561 c 0,2.475 0.195,3.487 0.434,2.25 0.238,-1.237 0.238,-3.263 0,-4.5 -0.239,-1.237 -0.434,-0.225 -0.434,2.25 m 2.846,-0.316 c 0.113,3.643 0.148,3.681 0.758,0.828 0.861,-4.025 3.849,-4.583 4.399,-0.822 0.405,2.768 0.41,2.765 0.318,-0.19 -0.078,-2.501 -0.55,-3.053 -2.843,-3.316 -2.592,-0.299 -2.743,-0.097 -2.632,3.5 m 8.266,-2.242 c -1.464,3.815 2.375,8.289 4.838,5.638 1.054,-1.133 0.984,-1.271 -0.399,-0.787 -0.922,0.324 -2.215,-0.06 -2.872,-0.852 -0.999,-1.204 -0.664,-1.441 2.034,-1.441 2.534,0 3.098,-0.341 2.622,-1.582 -0.334,-0.87 -0.607,-1.77 -0.607,-2 0,-1.155 -5.139,-0.218 -5.616,1.024 M 174,559 c 0,0.55 0.927,1 2.059,1 1.132,0 1.781,-0.45 1.441,-1 -0.34,-0.55 -1.266,-1 -2.059,-1 -0.793,0 -1.441,0.45 -1.441,1 m 8.362,0.5 c -0.801,2.086 0.382,4.751 1.889,4.256 1.964,-0.645 2.217,-5.756 0.284,-5.756 -0.879,0 -1.857,0.675 -2.173,1.5 m 34.132,-0.491 c -0.762,1.233 0.33,4.991 1.451,4.991 1.502,0 3.283,-2.962 2.698,-4.487 -0.658,-1.715 -3.209,-2.025 -4.149,-0.504 M 575.5,559 c -0.34,0.55 0.309,1 1.441,1 1.132,0 2.059,-0.45 2.059,-1 0,-0.55 -0.648,-1 -1.441,-1 -0.793,0 -1.719,0.45 -2.059,1 m 20.832,0.578 c -0.333,0.867 0.057,2.24 0.867,3.05 1.272,1.271 1.634,1.278 2.654,0.049 1.428,-1.721 0.485,-4.677 -1.491,-4.677 -0.784,0 -1.697,0.71 -2.03,1.578 M 633.5,559 c -0.34,0.55 0.309,1 1.441,1 1.132,0 2.059,-0.45 2.059,-1 0,-0.55 -0.648,-1 -1.441,-1 -0.793,0 -1.719,0.45 -2.059,1"></path>
    </clipPath>
  <clipPath id="SvgjsClipPath1293"><rect width="1000" height="1000" x="0" y="0" rx="0" ry="0"></rect></clipPath></defs><path style="fill:#fbbf24" id="rect1" width="203.87572" height="200.05304" x="98.115189" y="49.694706" clip-path="url(#clipPath5)" d="M 98.115189,49.694706 H 301.99091 V 249.74775 H 98.115189 Z" transform="translate(-98.115189,-49.694706)"></path></svg></g></g></svg></g><g id="dark-icon"><svg xmlns="http://www.w3.org/2000/svg" version="1.1" xmlns:xlink="http://www.w3.org/1999/xlink" width="1000" height="1000"><g clip-path="url(#SvgjsClipPath1294)"><rect width="1000" height="1000" fill="#ffffff"></rect><g transform="matrix(2.9429693736949156,0,0,2.9429693736949156,200,205.62501508271805)"><svg xmlns="http://www.w3.org/2000/svg" version="1.1" width="203.87572" height="200.05304" viewBox="0 0 203.87572 200.05304" preserveAspectRatio="xMidYMid" id="svg1" xmlns:svg="http://www.w3.org/2000/svg"><defs id="defs1">
    <clipPath clipPathUnits="userSpaceOnUse" id="clipPath5">
      <path id="lpe_path-effect5" class="powerclip" d="M 93.115189,44.694706 H 306.99091 V 254.74775 H 93.115189 Z M 0,293.5 V 587 h 199.892 199.891 l 0.549,-2.25 c 0.301,-1.237 399.661,-291.759 399.661,-291.759 l 0.257,146.754 C 800.41815,536.00117 800.52173,567.8201 801,0 H 400.5 0 v 293.5 m 0.493,0.5 c 0,161.425 0.116,227.462 0.257,146.75 0.141,-80.713 0.141,-212.788 0,-293.5 C 0.609,66.537 0.493,132.575 0.493,294 M 578.303,56.197 c -2.629,1.27 -4.053,4.129 -9.182,18.437 -2.143,5.976 -5.79,16.041 -8.104,22.366 -2.314,6.325 -6.382,17.575 -9.04,25 -2.658,7.425 -7.117,19.699 -9.908,27.276 -4.801,13.033 -5,13.953 -3.695,17.077 2.232,5.341 5.109,5.955 25.632,5.47 9.897,-0.233 17.994,-0.296 17.994,-0.139 0,0.296 -8.661,24.762 -12.115,34.222 -1.438,3.938 -1.674,5.703 -0.87,6.5 0.803,0.796 0.905,0.573 0.374,-0.82 -0.439,-1.154 -0.344,-1.676 0.241,-1.315 0.533,0.33 1.501,-0.25 2.149,-1.289 0.747,-1.196 0.82,-2.112 0.201,-2.495 -0.539,-0.333 -0.98,-1.055 -0.98,-1.605 0,-0.55 0.401,-0.752 0.89,-0.45 0.916,0.566 2.422,-2.226 5.898,-10.932 2.887,-7.233 9.212,-24.39 9.212,-24.989 0,-0.281 -9.188,-0.511 -20.418,-0.511 -11.23,0 -21.143,-0.278 -22.028,-0.618 -3.939,-1.511 -3.671,-3.759 2.496,-20.938 3.307,-9.214 5.847,-17.246 5.644,-17.849 -0.203,-0.602 0.181,-1.545 0.854,-2.095 1.225,-1.001 7.012,-16.098 18.402,-48 3.752,-10.51 6.871,-17.668 8.17,-18.75 1.31,-1.091 3.781,-1.75 6.562,-1.75 2.632,0 5.076,-0.615 5.961,-1.5 1.333,-1.333 0.742,-1.492 -5.322,-1.432 -3.751,0.037 -7.81,0.545 -9.018,1.129 m 59.609,-0.47 c 1.867,0.352 2.093,0.657 1,1.348 -0.929,0.589 0.486,0.9 4.138,0.91 5.864,0.016 7.95,1.163 7.95,4.372 0,1.736 -13.591,28.889 -25.64,51.225 -2.398,4.445 -4.36,8.383 -4.36,8.75 0,0.367 8.749,0.668 19.443,0.668 18.775,0 19.495,0.074 20.953,2.155 1.976,2.822 1.386,3.865 -9.246,16.345 -6.672,7.831 -7.732,10.572 -1.355,3.5 0.944,-1.046 1.137,-1.083 0.64,-0.12 -1.742,3.369 2.513,-0.063 8.313,-6.705 6.97,-7.981 8.006,-11.915 4.213,-15.986 -2.414,-2.592 -1.382,-2.481 -21.211,-2.276 -8.663,0.089 -15.75,-0.148 -15.75,-0.528 0,-0.38 3.094,-6.585 6.876,-13.788 19.165,-36.507 21.441,-41.499 20.47,-44.886 -1.215,-4.236 -4.482,-5.707 -12.346,-5.56 -3.575,0.067 -5.415,0.326 -4.088,0.576 M 178.2,62.2 c -0.66,0.66 -1.2,1.529 -1.2,1.932 0,0.402 -7.695,20.9 -17.099,45.55 -9.405,24.65 -17.931,47.181 -18.947,50.068 L 139.108,165 H 161.054 183 l -0.014,-4.25 c -0.022,-6.912 -0.851,-8.75 -3.948,-8.75 -3.195,0 -6.038,-2.744 -6.038,-5.829 0,-1.991 1.116,-3.423 5.428,-6.96 2.453,-2.013 1.877,-6.422 -1.989,-15.214 -5.456,-12.409 -4.259,-15.032 7.639,-16.744 4.569,-0.658 5.689,-1.268 7.638,-4.16 3.171,-4.706 2.921,-5.376 -1.716,-4.593 l -4,0.676 v -5.195 c 0,-4.342 0.262,-5.095 1.593,-4.584 0.876,0.336 2.75,0.902 4.164,1.257 2.159,0.542 2.464,0.366 1.903,-1.097 -2.439,-6.356 -2.32,-6.557 3.848,-6.557 5.264,0 5.676,0.161 5.109,2 -2.019,6.548 -2.018,6.34 -0.025,5.771 1.049,-0.299 2.695,-0.868 3.658,-1.265 1.533,-0.631 1.75,-0.082 1.75,4.432 v 5.153 l -3.609,-0.677 c -3.45,-0.648 -3.577,-0.572 -2.885,1.704 1.279,4.209 4.346,6.604 9.305,7.268 2.579,0.345 5.908,1.263 7.398,2.04 2.7,1.408 2.721,1.392 6.12,-4.757 4.668,-8.443 21.003,-39.71 21.889,-41.896 C 246.896,61.097 245.096,61 213.168,61 188.237,61 179.086,61.314 178.2,62.2 m 402.951,2.55 c -2.172,5.47 -10.471,28.181 -17.632,48.25 -4.023,11.275 -9.836,27.202 -12.917,35.394 -3.081,8.191 -5.602,15.054 -5.602,15.25 0,0.196 9.703,0.356 21.561,0.356 h 21.562 l -0.636,-4.75 c -0.915,-6.834 -1.146,-7.25 -4.021,-7.25 -7.133,0 -8.649,-5.231 -3.012,-10.394 4.332,-3.968 4.815,-8.302 1.618,-14.509 -3.79,-7.355 -5.156,-12.071 -4.08,-14.081 1.09,-2.037 5.989,-4.016 9.942,-4.016 1.848,0 3.147,-0.867 4.35,-2.904 2.218,-3.755 2.168,-4.12 -0.534,-3.834 -2.07,0.219 -2.274,-0.221 -2.55,-5.512 -0.294,-5.637 -0.248,-5.75 2.367,-5.75 2.134,0 2.566,-0.382 2.166,-1.914 -0.345,-1.32 0.115,-2.074 1.484,-2.432 1.091,-0.286 1.687,-1 1.325,-1.587 C 596.179,84.48 596.359,84 596.941,84 c 1.226,0 0.987,-2.191 -0.345,-3.154 -0.498,-0.36 -1.242,-3.136 -1.653,-6.169 -0.412,-3.033 -1.048,-6.877 -1.413,-8.541 l -0.665,-3.027 5.318,-0.369 c 2.924,-0.204 0.534,-0.453 -5.312,-0.555 L 582.243,62 l -1.092,2.75 m 41.599,-2.044 c 1.237,0.238 3.263,0.238 4.5,0 1.237,-0.239 0.225,-0.434 -2.25,-0.434 -2.475,0 -3.487,0.195 -2.25,0.434 m 13.855,0.011 c -1.523,0.39 -1.621,0.659 -0.5,1.369 1.005,0.636 0.626,0.888 -1.355,0.899 -2.021,0.011 -2.75,0.514 -2.75,1.898 0,1.081 -0.908,2.121 -2.13,2.441 -1.447,0.378 -1.933,1.069 -1.517,2.154 0.361,0.94 0.003,1.832 -0.87,2.167 -0.816,0.313 -1.483,1.646 -1.483,2.962 0,1.316 -0.406,2.393 -0.901,2.393 -0.995,0 -5.523,6.911 -5.57,8.5 -0.016,0.55 -0.824,1.593 -1.796,2.318 -0.971,0.726 -1.49,1.766 -1.152,2.313 0.338,0.547 -0.036,1.754 -0.831,2.682 -2.136,2.492 -2.731,4.806 -1.542,5.995 0.737,0.737 -0.101,1.269 -2.787,1.773 -3.686,0.691 -3.741,0.759 -1.38,1.684 1.442,0.565 1.942,1.157 1.209,1.432 -2.404,0.903 -1.216,2.149 3,3.148 2.337,0.553 5.15,1.284 6.25,1.623 1.763,0.544 3.451,-2.217 14.234,-23.275 6.729,-13.14 11.942,-24.184 11.584,-24.542 -0.726,-0.726 -6.782,-0.684 -9.713,0.066 M 598,90.383 c 0,0.211 1.125,0.599 2.5,0.862 1.375,0.263 2.5,0.09 2.5,-0.384 0,-0.473 -1.125,-0.861 -2.5,-0.861 -1.375,0 -2.5,0.173 -2.5,0.383 m 1,4.117 c 0,0.642 0.6,1.167 1.333,1.167 0.734,0 1.334,-0.525 1.334,-1.167 0,-0.642 -0.6,-1.167 -1.334,-1.167 -0.733,0 -1.333,0.525 -1.333,1.167 m -6,2.5 c 0,1.1 0.45,2 1,2 0.55,0 1,-0.702 1,-1.559 0,-0.857 0.45,-1.281 1,-0.941 0.55,0.34 1,0.141 1,-0.441 0,-0.582 -0.9,-1.059 -2,-1.059 -1.333,0 -2,0.667 -2,2 m 5.667,3.667 c -0.995,0.995 -0.805,3.333 0.271,3.333 0.516,0 0.87,-0.9 0.787,-2 -0.17,-2.26 -0.153,-2.239 -1.058,-1.333 M 595,107.905 c 0,0.815 7.909,0.334 8.917,-0.543 0.229,-0.199 -1.684,-0.362 -4.25,-0.362 -2.567,0 -4.667,0.407 -4.667,0.905 m -408.5,3.592 c -0.55,0.187 -2.738,0.631 -4.862,0.987 -3.55,0.596 -3.818,0.865 -3.32,3.332 0.93,4.609 6.801,16.178 8.276,16.309 0.773,0.069 2.081,0.125 2.906,0.125 0.825,0 5.571,-0.056 10.546,-0.125 l 9.046,-0.125 4.05,-8.44 c 2.227,-4.642 3.778,-8.881 3.445,-9.419 -1.056,-1.709 -10.372,-3.144 -19.886,-3.062 -5.061,0.043 -9.651,0.232 -10.201,0.418 m 398.191,1.225 c -1.545,0.232 -3.044,1.034 -3.33,1.781 -0.287,0.747 1.307,5.208 3.543,9.914 l 4.064,8.555 11.507,-0.236 11.507,-0.236 4.181,-8.744 c 2.3,-4.81 3.915,-9.012 3.588,-9.338 -2.029,-2.029 -25.341,-3.157 -35.06,-1.696 m 16.492,1.144 c -0.814,0.516 1.453,1.092 5.942,1.509 3.992,0.371 7.427,0.844 7.634,1.05 0.206,0.207 -0.722,2.558 -2.062,5.226 -1.341,2.667 -2.722,5.974 -3.07,7.349 -0.348,1.375 0.919,-0.65 2.816,-4.5 1.896,-3.85 3.472,-7.491 3.502,-8.092 0.118,-2.338 -11.836,-4.397 -14.762,-2.542 m 0.317,2.899 c 1.072,0.788 1.363,6.083 0.425,7.735 -0.313,0.55 -0.27,2.35 0.094,4 l 0.662,3 1.139,-2.761 c 0.626,-1.518 0.984,-4.085 0.796,-5.704 -0.189,-1.619 0.082,-2.852 0.601,-2.74 0.519,0.113 1.638,-0.808 2.485,-2.045 1.525,-2.226 1.495,-2.25 -2.83,-2.235 -2.405,0.009 -3.922,0.346 -3.372,0.75 m 6.55,6.785 c -1.711,3.697 -2.873,6.961 -2.581,7.253 0.718,0.717 0.785,0.602 3.88,-6.689 3.642,-8.577 2.616,-9.023 -1.299,-0.564 m -392.732,5.7 c -1.484,3.327 -0.776,9.075 1.262,10.247 0.959,0.551 2.61,1.829 3.669,2.84 3.472,3.314 0.297,9.663 -4.833,9.663 -3.007,0 -3.432,1.642 -3.316,12.832 0.174,16.904 -1.181,17.45 21.019,-8.464 10.775,-12.577 20.821,-24.331 22.325,-26.118 l 2.734,-3.25 h -20.929 c -20.739,0 -20.937,0.02 -21.931,2.25 m 402.009,0 c -1.583,4.411 -0.95,9.145 1.506,11.25 1.283,1.1 3.486,3.012 4.896,4.25 2.65,2.327 4.271,2.864 4.271,1.417 0,-0.459 0.675,-0.834 1.5,-0.834 0.825,0 1.5,0.402 1.5,0.893 0,0.49 0.563,0.541 1.25,0.113 1.771,-1.105 5.75,-1.202 5.75,-0.141 0,1.099 3.046,0.655 4.787,-0.698 C 645.081,143.717 658,128.73 658,127.852 658,127.383 649.03,127 638.067,127 c -19.765,0 -19.939,0.019 -20.74,2.25 m -30.103,6.307 c 0.858,0.858 25.777,1.044 25.776,0.193 0,-0.412 -5.925,-0.75 -13.167,-0.75 -7.241,0 -12.916,0.251 -12.609,0.557 M 184.638,138.5 c -0.493,1.286 1.277,1.5 12.393,1.5 10.861,0 12.969,-0.244 12.969,-1.5 0,-1.253 -2.044,-1.5 -12.393,-1.5 -10.094,0 -12.5,0.278 -12.969,1.5 m 401.921,2.032 c -1.879,1.421 -1.862,1.469 0.5,1.509 1.342,0.022 8.514,0.292 15.936,0.599 l 13.494,0.558 -1.899,-2.099 c -1.734,-1.915 -2.957,-2.096 -13.995,-2.067 -9.048,0.024 -12.584,0.402 -14.036,1.5 m -408.128,4.58 c -0.378,0.611 -0.115,1.465 0.584,1.897 1.155,0.714 37.016,0.185 37.835,-0.558 0.193,-0.175 0.054,-0.798 -0.309,-1.384 -0.93,-1.506 -37.178,-1.463 -38.11,0.045 m 402.691,0.792 c -0.758,0.48 -1.065,1.379 -0.682,1.998 0.474,0.768 6.008,1.1 17.378,1.043 11.839,-0.06 16.156,-0.378 14.871,-1.098 -0.996,-0.558 -2.499,-0.75 -3.34,-0.427 -0.841,0.322 -2.051,0.248 -2.689,-0.167 -0.638,-0.414 1.99,-1.011 5.84,-1.326 4.469,-0.366 0.31,-0.632 -11.5,-0.735 -10.175,-0.089 -19.12,0.231 -19.878,0.712 m -393.387,12.381 c 0.623,7.769 -1.145,14.548 -10.232,39.215 -11.401,30.95 -14.451,39.881 -13.12,38.417 0.708,-0.779 7.999,-9.25 16.202,-18.823 8.203,-9.574 18.157,-21.153 22.12,-25.731 7.089,-8.191 7.185,-8.377 6.001,-11.594 -0.695,-1.887 -1.205,-8.448 -1.205,-15.518 L 207.5,152.001 H 197.365 L 187.23,152 l 0.505,6.285 M 590.5,161.75 c 0,7.73 -0.466,10.949 -2.25,15.538 -2.69,6.92 -2.68,6.814 -0.586,6.011 1.208,-0.464 1.44,-0.276 0.846,0.686 -0.549,0.887 -0.433,1.085 0.352,0.6 0.644,-0.398 0.912,-1.142 0.595,-1.654 -0.316,-0.512 -0.129,-0.931 0.417,-0.931 0.545,0 1.3,-1.012 1.678,-2.25 0.377,-1.238 1.477,-4.05 2.442,-6.25 0.966,-2.2 2.311,-6.475 2.988,-9.5 0.677,-3.025 1.621,-6.261 2.096,-7.191 0.725,-1.416 0.259,-1.755 -2.856,-2.082 -2.047,-0.215 -0.347,-0.466 3.778,-0.559 L 607.5,154 v 8.25 c 0,4.537 0.311,11.175 0.692,14.75 0.529,4.967 0.444,5.91 -0.36,4 -0.578,-1.375 -1.289,-7.787 -1.579,-14.25 -0.512,-11.415 -0.593,-11.75 -2.81,-11.75 -2.253,0 -2.277,0.128 -1.812,9.718 0.259,5.344 0.673,9.919 0.92,10.166 0.247,0.247 0.513,-3.788 0.591,-8.967 l 0.143,-9.417 0.784,10 c 0.431,5.5 1.219,11.912 1.751,14.25 0.64,2.813 0.629,4.25 -0.033,4.25 -0.551,0 -0.733,0.698 -0.405,1.552 0.327,0.854 0.177,1.294 -0.333,0.978 -0.51,-0.315 -0.855,0.394 -0.766,1.577 0.142,1.879 0.642,1.608 3.98,-2.153 2.549,-2.872 3.586,-4.826 3.121,-5.878 -0.383,-0.867 -0.902,-7.763 -1.154,-15.326 L 609.773,152 h -9.636 -9.637 v 9.75 m 22.973,-3.343 c -0.626,5.843 -0.094,14.39 1.173,18.864 0.386,1.362 2.1,-0.121 7.428,-6.429 3.809,-4.51 6.926,-8.532 6.926,-8.937 0,-0.406 -1.318,-1.321 -2.928,-2.033 -1.61,-0.713 -2.73,-1.616 -2.489,-2.007 0.242,-0.391 -1.429,-1.533 -3.712,-2.538 l -4.151,-1.827 2.89,-0.632 c 2.745,-0.6 2.706,-0.637 -0.78,-0.75 l -3.671,-0.118 -0.686,6.407 m 27.932,-4.157 -1.905,2.25 2.25,-1.905 c 2.114,-1.79 2.705,-2.595 1.905,-2.595 -0.19,0 -1.202,1.012 -2.25,2.25 m -13.767,16.195 -11.488,13.445 1.76,5.812 c 2.045,6.755 3.376,9.461 5.535,11.253 0.855,0.709 1.555,2.228 1.555,3.375 0,1.147 1.665,3.791 3.7,5.875 3.011,3.083 3.769,4.674 4.07,8.542 0.204,2.614 0.609,6.89 0.901,9.503 l 0.53,4.75 -13.35,0.116 c -7.343,0.064 -12.451,0.337 -11.351,0.608 1.1,0.27 2.45,0.855 3,1.299 1.649,1.331 23.278,1.599 24.573,0.304 0.712,-0.712 0.929,-3.119 0.583,-6.48 -0.303,-2.941 -0.749,-7.458 -0.992,-10.037 -0.422,-4.475 -2.771,-8.994 -6.117,-11.771 -0.851,-0.706 -1.547,-2.067 -1.547,-3.024 0,-0.957 -1.286,-3.359 -2.859,-5.337 -1.572,-1.979 -3.449,-5.708 -4.171,-8.287 -1.548,-5.526 -1.45,-5.741 7.421,-16.388 3.24,-3.889 6.018,-8.227 6.174,-9.641 0.155,-1.413 1.295,-3.648 2.533,-4.966 1.238,-1.318 1.976,-2.396 1.639,-2.396 -0.336,0 -5.781,6.05 -12.099,13.445 m -24.325,10.296 c 0.131,2.333 -0.223,4.435 -0.787,4.672 -0.564,0.236 -0.449,0.465 0.255,0.508 1.859,0.115 2.281,-1.929 1.222,-5.921 l -0.928,-3.5 0.238,4.241 M 585,186 c 0,0.55 0.477,1 1.059,1 0.582,0 0.781,-0.45 0.441,-1 -0.34,-0.55 -0.816,-1 -1.059,-1 -0.243,0 -0.441,0.45 -0.441,1 m 26.62,2.806 c -0.334,0.54 0.07,2.899 0.897,5.244 1.636,4.636 1.19,6.939 -0.489,2.524 -0.565,-1.487 -1.028,-3.125 -1.028,-3.639 0,-0.514 -0.5,-0.935 -1.111,-0.935 -0.74,0 -0.881,1.253 -0.422,3.75 0.451,2.456 0.35,3.405 -0.292,2.75 -0.54,-0.55 -1.157,-1.9 -1.372,-3 -0.369,-1.888 -0.464,-1.867 -1.697,0.371 -1.029,1.869 -1.037,2.204 -0.036,1.586 0.9,-0.556 1.084,-0.3 0.631,0.879 -0.547,1.427 0.141,1.664 4.83,1.664 3.008,0 5.469,-0.145 5.469,-0.322 0,-1.026 -3.391,-10.317 -4.02,-11.015 -0.415,-0.461 -1.027,-0.396 -1.36,0.143 m -406.822,7.072 -5.703,6.622 8.077,0.292 c 4.442,0.161 8.255,0.114 8.474,-0.104 0.433,-0.433 -3.616,-11.799 -4.563,-12.81 -0.321,-0.342 -3.149,2.358 -6.285,6 M 583,192.059 c 0,0.582 0.45,0.781 1,0.441 0.55,-0.34 1,-0.816 1,-1.059 0,-0.243 -0.45,-0.441 -1,-0.441 -0.55,0 -1,0.477 -1,1.059 m 22,11.715 c 2.949,0.382 3.185,0.582 1.5,1.269 -1.282,0.524 0.961,0.842 6.25,0.887 6.698,0.057 8.25,-0.212 8.25,-1.43 0,-1.242 -1.679,-1.472 -9.75,-1.34 -5.362,0.088 -8.175,0.364 -6.25,0.614 m -416.916,11.476 -7.061,8.25 21.715,0.27 c 11.943,0.149 22.288,0.05 22.988,-0.218 2.493,-0.957 1.283,-5.42 -2.726,-10.052 -2.2,-2.542 -4,-5.044 -4,-5.561 0,-0.533 -5.157,-0.939 -11.927,-0.939 h -11.928 l -7.061,8.25 m 417.746,-6.521 c 2.384,0.293 3.175,0.816 2.782,1.84 -0.302,0.787 -0.21,1.431 0.204,1.431 0.414,0 1.528,1.312 2.474,2.915 1.312,2.22 1.423,3.035 0.466,3.421 -0.691,0.278 2.247,0.542 6.529,0.585 7.122,0.072 7.704,-0.07 6.836,-1.671 -1.473,-2.716 -7.121,-7.775 -7.121,-6.378 0,0.685 -0.45,0.968 -1,0.628 -0.55,-0.34 -1,-0.168 -1,0.382 0,0.55 0.45,1.278 1,1.618 0.55,0.34 1,0.072 1,-0.596 0,-0.753 0.759,-0.527 2,0.596 1.1,0.995 2,2.26 2,2.81 0,0.55 -0.976,0.143 -2.17,-0.905 -2.139,-1.879 -2.16,-1.877 -1.505,0.095 0.43,1.296 -0.39,0.782 -2.331,-1.462 -3.13,-3.62 -4.079,-6.183 -1.494,-4.038 0.825,0.685 1.5,0.801 1.5,0.259 0,-2.269 3.821,-0.468 7.389,3.484 5.398,5.979 4.57,7.094 -5.592,7.533 -8.16,0.352 -8.14,0.357 1.203,0.291 l 9.5,-0.067 0.31,-2.681 c 0.225,-1.948 -0.695,-3.793 -3.367,-6.75 l -3.676,-4.069 -9.633,0.16 c -5.299,0.088 -8.135,0.344 -6.304,0.569 M 567,214 c 0,0.55 0.477,1 1.059,1 0.582,0 0.781,-0.45 0.441,-1 -0.34,-0.55 -0.816,-1 -1.059,-1 -0.243,0 -0.441,0.45 -0.441,1 m 42.695,11.68 c 1.409,0.286 1.997,0.959 1.643,1.882 -0.457,1.19 1.121,1.438 9.128,1.438 8.681,0 9.646,-0.181 9.345,-1.75 -0.293,-1.53 -1.714,-1.767 -11.323,-1.882 -6.043,-0.073 -10,0.068 -8.793,0.312 m 8.666,1.014 c 0.729,0.729 8.757,0.521 9.526,-0.248 C 628.132,226.201 625.933,226 623,226 c -2.933,0 -5.021,0.312 -4.639,0.694 m -443.187,3.62 c -1.196,1.273 -2.174,2.623 -2.174,3 0,0.988 54.781,0.849 55.393,-0.14 0.281,-0.455 0.255,-1.805 -0.058,-3 -0.564,-2.159 -0.738,-2.174 -25.777,-2.174 -25.058,0 -25.222,0.014 -27.384,2.314 M 555.15,268.25 c 0.146,3.169 0.16,3.179 0.576,0.398 0.358,-2.391 0.814,-2.778 2.82,-2.394 1.316,0.251 2.156,0.072 1.865,-0.398 -0.291,-0.471 -1.627,-0.856 -2.97,-0.856 -2.118,0 -2.421,0.43 -2.291,3.25 m -403.071,2.5 c 0.087,5.228 0.572,4.805 1.148,-1 0.204,-2.062 0.012,-3.75 -0.428,-3.75 -0.439,0 -0.763,2.137 -0.72,4.75 m 454.213,-3.299 c -0.945,1.075 -0.937,1.599 0.037,2.407 0.929,0.771 1.295,0.414 1.446,-1.413 0.232,-2.806 0.155,-2.858 -1.483,-0.994 m 7.708,3.216 c 0,2.566 0.163,4.479 0.362,4.25 0.877,-1.008 1.358,-8.917 0.543,-8.917 -0.498,0 -0.905,2.1 -0.905,4.667 m 8.733,-0.417 c 0.744,5.831 1.267,6.003 1.267,0.417 0,-2.567 -0.407,-4.667 -0.905,-4.667 -0.498,0 -0.661,1.913 -0.362,4.25 m 12.058,-2.955 c -0.215,0.663 -0.089,2.78 0.278,4.705 l 0.668,3.5 0.131,-3.167 c 0.073,-1.741 0.538,-3.316 1.033,-3.5 0.496,-0.183 0.312,-0.875 -0.41,-1.538 -1.023,-0.941 -1.397,-0.941 -1.7,0 m -466.124,1.372 c -0.367,0.366 -0.66,1.154 -0.652,1.75 0.011,0.733 0.253,0.716 0.75,-0.051 0.404,-0.624 1.635,-1.359 2.735,-1.634 1.935,-0.484 1.932,-0.504 -0.083,-0.616 -1.146,-0.064 -2.384,0.184 -2.75,0.551 m 7.585,2.833 c 0.011,2.2 0.216,2.982 0.455,1.738 0.239,-1.244 0.23,-3.044 -0.02,-4 -0.25,-0.956 -0.446,0.062 -0.435,2.262 M 182,268.393 c 0,0.216 0.698,0.661 1.552,0.989 0.89,0.341 1.291,0.173 0.941,-0.393 -0.587,-0.951 -2.493,-1.406 -2.493,-0.596 m 11.851,0.276 c 1.952,0.412 2.279,0.992 1.924,3.414 -0.236,1.604 -0.028,2.917 0.462,2.917 0.489,0 0.749,-1.462 0.576,-3.25 -0.256,-2.662 -0.765,-3.28 -2.813,-3.414 -2.396,-0.157 -2.402,-0.143 -0.149,0.333 m 35.228,0.914 c 0.048,1.165 0.285,1.402 0.604,0.605 0.289,-0.722 0.253,-1.585 -0.079,-1.917 -0.332,-0.332 -0.568,0.258 -0.525,1.312 m 2.734,-0.9 c 0.721,0.289 1.584,0.253 1.916,-0.079 0.332,-0.332 -0.258,-0.568 -1.312,-0.525 -1.165,0.048 -1.402,0.285 -0.604,0.604 m 5.187,0.376 c 0,0.582 0.45,0.781 1,0.441 0.55,-0.34 1,-0.816 1,-1.059 0,-0.243 -0.45,-0.441 -1,-0.441 -0.55,0 -1,0.477 -1,1.059 m 327.252,2.441 c 0.011,2.2 0.216,2.982 0.455,1.738 0.239,-1.244 0.23,-3.044 -0.02,-4 -0.25,-0.956 -0.446,0.062 -0.435,2.262 m 4.906,-1.5 c 0,1.375 0.227,1.938 0.504,1.25 0.278,-0.687 0.278,-1.812 0,-2.5 -0.277,-0.687 -0.504,-0.125 -0.504,1.25 m 4.652,1.5 c -0.225,1.925 -0.049,3.5 0.391,3.5 0.439,0 0.799,-1.575 0.799,-3.5 0,-1.925 -0.176,-3.5 -0.391,-3.5 -0.214,0 -0.574,1.575 -0.799,3.5 m 4.94,-2.838 c 0.688,0.278 1.813,0.278 2.5,0 0.688,-0.277 0.125,-0.504 -1.25,-0.504 -1.375,0 -1.937,0.227 -1.25,0.504 M 643.71,270 c 0.288,1.1 0.696,2 0.907,2 0.21,0 0.383,-0.9 0.383,-2 0,-1.1 -0.408,-2 -0.906,-2 -0.499,0 -0.671,0.9 -0.384,2 m -479.552,2 c 0,1.375 0.227,1.938 0.504,1.25 0.278,-0.687 0.278,-1.812 0,-2.5 -0.277,-0.687 -0.504,-0.125 -0.504,1.25 m 49.406,-0.707 c 0.376,0.986 0.935,1.541 1.243,1.233 0.308,-0.307 0.001,-1.114 -0.683,-1.793 -0.988,-0.98 -1.102,-0.865 -0.56,0.56 m 3.515,0.29 c 0.048,1.165 0.285,1.402 0.604,0.605 0.289,-0.722 0.253,-1.585 -0.079,-1.917 -0.332,-0.332 -0.568,0.258 -0.525,1.312 m 376,0 c 0.048,1.165 0.285,1.402 0.604,0.605 0.289,-0.722 0.253,-1.585 -0.079,-1.917 -0.332,-0.332 -0.568,0.258 -0.525,1.312 m 8,0 c 0.048,1.165 0.285,1.402 0.604,0.605 0.289,-0.722 0.253,-1.585 -0.079,-1.917 -0.332,-0.332 -0.568,0.258 -0.525,1.312 M 184.158,273 c 0,1.375 0.227,1.938 0.504,1.25 0.278,-0.687 0.278,-1.812 0,-2.5 -0.277,-0.687 -0.504,-0.125 -0.504,1.25 m 401,0 c 0,1.375 0.227,1.938 0.504,1.25 0.278,-0.687 0.278,-1.812 0,-2.5 -0.277,-0.687 -0.504,-0.125 -0.504,1.25 M 229,273.5 c 0,0.825 0.436,1.5 0.969,1.5 0.532,0 0.709,-0.675 0.393,-1.5 -0.317,-0.825 -0.753,-1.5 -0.969,-1.5 -0.216,0 -0.393,0.675 -0.393,1.5 m 326.079,0.083 c 0.048,1.165 0.285,1.402 0.604,0.605 0.289,-0.722 0.253,-1.585 -0.079,-1.917 -0.332,-0.332 -0.568,0.258 -0.525,1.312 M 643.5,274 c -0.34,0.55 -0.141,1 0.441,1 0.582,0 1.059,-0.45 1.059,-1 0,-0.55 -0.198,-1 -0.441,-1 -0.243,0 -0.719,0.45 -1.059,1 m -467.824,91.25 c -1.887,1.383 -5.39,11.123 -28.919,80.418 -1.954,5.753 -1.986,6.334 -0.475,8.64 1.584,2.416 1.954,2.48 16.59,2.837 8.234,0.201 15.285,0.678 15.668,1.062 0.383,0.383 -3.187,12.081 -7.934,25.995 -4.747,13.914 -8.625,26.255 -8.618,27.426 0.029,5.008 6.515,5.586 9.614,0.856 L 173.23,510 h 24.014 24.014 l -0.676,-8.25 c -0.563,-6.859 -1.175,-8.971 -3.63,-12.529 -1.623,-2.354 -2.952,-4.764 -2.952,-5.356 0,-0.592 -1.098,-2.381 -2.439,-3.975 -1.347,-1.601 -2.739,-4.893 -3.107,-7.351 -0.666,-4.441 -0.647,-4.477 8.152,-15.245 C 240.251,428.358 243,424.742 243,422.578 c 0,-4.646 -2.519,-5.497 -17.171,-5.798 l -13.58,-0.28 10.444,-21.5 c 5.743,-11.825 10.696,-22.75 11.005,-24.277 0.381,-1.881 -0.014,-3.414 -1.223,-4.75 -1.692,-1.87 -3.177,-1.973 -28.439,-1.973 -19.746,0 -27.096,0.324 -28.36,1.25 m 1.637,1.536 c -1.544,0.981 -1.71,1.424 -14.011,37.214 -16.678,48.53 -16.267,47.197 -15.196,49.197 0.871,1.628 2.604,1.803 17.848,1.803 h 16.885 l -6.969,20.25 c -3.832,11.137 -8.071,23.314 -9.419,27.06 -1.348,3.745 -2.451,7.907 -2.451,9.25 0,3.461 3.201,3.179 6.347,-0.56 l 2.524,-3 h 23.166 23.166 l -0.693,-7.25 c -0.561,-5.874 -1.245,-7.951 -3.601,-10.941 -1.6,-2.031 -2.909,-4.252 -2.909,-4.936 0,-0.684 -0.858,-2.173 -1.906,-3.309 -2.251,-2.437 -5.356,-12.318 -4.381,-13.937 0.373,-0.62 6.553,-8.259 13.733,-16.975 C 235.518,431.14 241,423.986 241,422.526 241,419.532 238.406,419 223.8,419 c -8.14,0 -14.8,-0.22 -14.8,-0.488 0,-0.268 5.175,-11.122 11.5,-24.12 6.325,-12.997 11.5,-24.429 11.5,-25.405 0,-0.975 -0.712,-2.046 -1.582,-2.38 -2.299,-0.882 -51.699,-0.716 -53.105,0.179 m 0.805,4.464 c -1.002,2.705 -3.674,10.399 -10.333,29.75 C 156.722,433.148 151,450.223 151,451.088 c 0,0.511 7.03,0.912 16,0.912 15.93,0 16,-0.01 15.986,-2.25 -0.027,-4.507 -1.127,-6.376 -4.304,-7.312 -4.176,-1.231 -4.758,-4.673 -1.401,-8.296 3.782,-4.082 3.898,-6.557 0.644,-13.808 -4.418,-9.848 -3.941,-11.256 4.313,-12.745 2.129,-0.385 4.173,-1.489 4.75,-2.566 1.414,-2.643 1.29,-3.023 -0.988,-3.023 -1.704,0 -2,-0.667 -2,-4.5 0,-3.833 0.296,-4.5 2,-4.5 1.333,0 2,-0.667 2,-2 0,-1.733 0.667,-2 5,-2 4.333,0 5,0.267 5,2 0,1.111 0.667,2 1.5,2 1.13,0 1.5,1.212 1.5,4.906 0,4.507 -0.173,4.862 -2.12,4.352 -2.055,-0.537 -2.069,-0.475 -0.452,1.992 1.037,1.582 3.001,2.796 5.191,3.206 1.938,0.364 4.113,0.888 4.835,1.165 0.89,0.341 4.403,-5.82 10.929,-19.165 C 224.672,378.639 229,369.611 229,369.394 229,369.177 217.739,369 203.975,369 H 178.95 l -0.832,2.25 M 191.29,394 c 0.416,1.591 0.03,2 -1.884,2 -1.472,0 -2.406,0.582 -2.406,1.5 0,0.91 0.929,1.5 2.361,1.5 1.98,0 2.284,0.404 1.884,2.5 -0.389,2.035 -0.081,2.5 1.657,2.5 1.779,0 2.031,-0.418 1.509,-2.5 -0.55,-2.188 -0.302,-2.5 1.981,-2.5 1.652,0 2.608,-0.55 2.608,-1.5 0,-0.918 -0.934,-1.5 -2.406,-1.5 -1.914,0 -2.3,-0.409 -1.884,-2 0.408,-1.559 0.031,-2 -1.71,-2 -1.741,0 -2.118,0.441 -1.71,2 m -0.54,12.706 c 1.238,0.238 3.262,0.238 4.5,0 1.238,-0.239 0.225,-0.434 -2.25,-0.434 -2.475,0 -3.488,0.195 -2.25,0.434 m -11.086,3.961 c -2.196,0.613 -1.869,2.458 1.884,10.658 l 2.599,5.675 h 8.787 8.787 l 3.062,-7.25 c 1.991,-4.714 2.723,-7.6 2.092,-8.25 -1.004,-1.036 -23.968,-1.739 -27.211,-0.833 m 20.586,2.061 c 2.063,0.216 3.75,0.578 3.75,0.804 0,0.226 -1.1,2.899 -2.445,5.939 -1.345,3.041 -2.22,5.529 -1.945,5.529 1.008,0 5.505,-11.005 4.898,-11.987 -0.344,-0.557 -2.287,-0.937 -4.317,-0.845 l -3.691,0.168 3.75,0.392 m -0.571,4.818 c -2.349,4.927 -2.018,5.765 0.437,1.11 1.116,-2.115 1.852,-4.022 1.636,-4.238 -0.217,-0.216 -1.149,1.192 -2.073,3.128 m 6.319,6.458 c -1.465,2.737 0.329,9.11 3.038,10.793 3.41,2.119 2.287,6.438 -2.036,7.831 l -3.5,1.127 -0.308,6.873 c -0.169,3.779 -0.033,8.35 0.302,10.155 l 0.609,3.284 7.267,-8.784 C 227.589,435.679 237,423.797 237,422.923 237,422.4 230.517,422 222.035,422 c -13.952,0 -15.037,0.136 -16.037,2.004 M 183,428.941 c 0,0.675 3.63,1.059 10,1.059 5.5,0 10,-0.364 10,-0.809 0,-0.445 -4.5,-0.922 -10,-1.059 -6.528,-0.163 -10,0.118 -10,0.809 m -0.964,4.516 c -1.142,1.376 -0.013,1.543 10.425,1.543 8.92,0 11.607,-0.298 11.29,-1.25 -0.287,-0.862 -3.525,-1.341 -10.425,-1.543 -8.057,-0.236 -10.259,0.008 -11.29,1.25 M 178,438.5 c 0,1.267 2.333,1.5 15,1.5 12.667,0 15,-0.233 15,-1.5 0,-1.267 -2.333,-1.5 -15,-1.5 -12.667,0 -15,0.233 -15,1.5 m 22.762,0.207 c 1.244,0.239 3.044,0.23 4,-0.02 0.956,-0.25 -0.062,-0.446 -2.262,-0.435 -2.2,0.011 -2.982,0.216 -1.738,0.455 M 185.75,449.25 c 0.315,5.697 -0.448,8.582 -8.623,32.604 -5.011,14.722 -8.232,25.533 -7.298,24.494 0.919,-1.023 4.357,-5.233 7.639,-9.354 3.283,-4.122 7.333,-9.101 9,-11.065 1.668,-1.964 5.507,-6.613 8.532,-10.331 l 5.5,-6.761 v -12.912 -12.912 l -7.547,-0.006 -7.548,-0.007 0.345,6.25 m 5.957,-4.514 5.207,0.366 0.345,7.199 0.344,7.199 0.198,-7.75 0.199,-7.75 -5.75,0.185 -5.75,0.185 5.207,0.366 m 3.648,10.764 c -0.003,4.95 0.166,7.101 0.376,4.78 0.209,-2.321 0.212,-6.371 0.005,-9 -0.206,-2.629 -0.378,-0.73 -0.381,4.22 m 2.645,7.274 c 0,1.71 0.443,3.382 0.985,3.717 0.615,0.38 0.749,-0.63 0.356,-2.691 C 198.499,459.378 198,458.997 198,462.774 M 196,467 c 0,1.1 0.408,2 0.906,2 0.499,0 0.671,-0.9 0.384,-2 -0.288,-1.1 -0.696,-2 -0.907,-2 -0.21,0 -0.383,0.9 -0.383,2 m 5.758,5.575 c -0.316,0.317 -0.174,1.974 0.316,3.684 0.491,1.71 0.696,3.304 0.458,3.543 -0.239,0.239 -0.73,-0.744 -1.092,-2.184 -0.801,-3.194 -2.627,-3.513 -2.105,-0.368 0.205,1.238 0.174,1.654 -0.069,0.925 -0.343,-1.029 -0.87,-0.938 -2.354,0.405 -3.031,2.743 -2.3,3.42 3.695,3.42 4.946,0 5.523,-0.206 4.892,-1.75 -0.394,-0.962 -1.138,-3.212 -1.654,-5 -0.983,-3.401 -1.148,-3.613 -2.087,-2.675 M 191.5,485 c -0.395,0.639 2.656,1 8.441,1 5.373,0 9.059,-0.407 9.059,-1 0,-0.588 -3.48,-1 -8.441,-1 -4.643,0 -8.719,0.45 -9.059,1 m -6.867,8.5 -4.748,5.5 h 17.557 c 17.55,0 17.558,-10e-4 17.529,-2.25 -0.016,-1.238 -1.36,-3.712 -2.986,-5.5 -2.953,-3.245 -2.971,-3.25 -12.78,-3.25 h -9.824 l -4.748,5.5 m 24.117,-2.487 c 1.905,2.507 1.49,3.514 -0.651,1.577 -1.514,-1.37 -2.055,-1.453 -2.66,-0.405 -0.418,0.723 -0.387,0.977 0.07,0.563 0.456,-0.414 1.54,-0.108 2.41,0.679 0.869,0.787 2.02,1.429 2.556,1.427 0.536,-0.002 1.131,0.464 1.321,1.035 0.221,0.661 -3.411,1.158 -9.975,1.364 l -10.321,0.325 10.691,0.211 c 5.88,0.116 10.931,-0.177 11.224,-0.652 0.294,-0.475 -0.917,-2.417 -2.691,-4.316 -1.773,-1.899 -2.661,-2.713 -1.974,-1.808 m -31.61,11.247 c -0.627,0.627 -1.14,1.5 -1.14,1.94 0,0.44 9.033,0.8 20.073,0.8 18.58,0 20.049,-0.13 19.736,-1.75 -0.306,-1.584 -2.107,-1.768 -18.933,-1.94 -12.82,-0.131 -18.95,0.164 -19.736,0.95 m 30.333,0.784 c -0.325,0.526 0.336,0.956 1.468,0.956 2.415,0 2.658,-0.556 0.591,-1.349 -0.807,-0.31 -1.734,-0.133 -2.059,0.393 M 212,503 c 0,0.55 0.477,1 1.059,1 0.582,0 0.781,-0.45 0.441,-1 -0.34,-0.55 -0.816,-1 -1.059,-1 -0.243,0 -0.441,0.45 -0.441,1 m -50,56.7 c 0,5.889 1.556,6.462 2.173,0.8 l 0.327,-3 1.966,3.25 c 1.081,1.788 2.271,3.25 2.645,3.25 0.964,0 1.595,-7.858 0.742,-9.238 -0.39,-0.631 -0.854,0.601 -1.031,2.739 L 168.5,561.387 166,557.7 c -1.375,-2.027 -2.838,-3.689 -3.25,-3.693 -0.412,-0.004 -0.75,2.558 -0.75,5.693 m 40.571,-4.129 c -2.091,2.092 -1.983,4.698 0.312,7.532 1.661,2.052 2.189,2.185 4.5,1.132 3.191,-1.454 3.637,-5.235 0.617,-5.235 -2.463,0 -2.65,1.698 -0.25,2.272 1.667,0.399 1.667,0.455 0,1.18 -2.81,1.224 -4.75,-0.13 -4.75,-3.314 0,-3.144 1.814,-4.502 4.091,-3.061 2.209,1.399 3.28,1.075 1.909,-0.577 -1.614,-1.944 -4.444,-1.913 -6.429,0.071 m 9.739,3.929 c 0.005,3.3 0.192,4.529 0.415,2.732 0.222,-1.797 0.218,-4.497 -0.01,-6 -0.229,-1.503 -0.411,-0.032 -0.405,3.268 M 565,554.263 c 0,1.583 3.359,9.737 4.011,9.737 1.057,0 4.466,-8.857 3.703,-9.62 -0.317,-0.316 -1.123,1.254 -1.793,3.49 -1.359,4.536 -2.444,4.577 -3.421,0.13 -0.36,-1.637 -1.069,-3.234 -1.577,-3.548 C 565.415,554.139 565,554.053 565,554.263 M 613.18,559.25 613,565 h 3.059 c 1.785,0 2.802,-0.417 2.441,-1 -0.34,-0.55 -1.467,-1 -2.504,-1 -1.531,0 -1.957,-0.895 -2.261,-4.75 -0.37,-4.698 -0.376,-4.686 -0.555,1 M 620.5,555 c 0.34,0.55 0.816,1 1.059,1 0.243,0 0.441,-0.45 0.441,-1 0,-0.55 -0.477,-1 -1.059,-1 -0.582,0 -0.781,0.45 -0.441,1 m -29.606,1.211 c -0.261,3.171 0.354,7.372 1.209,8.258 0.582,0.603 0.684,-0.284 0.271,-2.351 -0.389,-1.943 -0.235,-3.59 0.37,-3.969 0.672,-0.422 0.548,-1.101 -0.355,-1.938 -1.134,-1.053 -1.408,-1.053 -1.495,0 m -417.656,1.951 c -3.128,3.128 0.103,7.959 4.036,6.032 l 2.226,-1.091 -2.39,0.198 c -1.314,0.11 -2.589,-0.363 -2.833,-1.051 -0.283,-0.798 0.518,-1.25 2.213,-1.25 1.991,0 2.573,-0.439 2.323,-1.75 -0.404,-2.123 -3.865,-2.798 -5.575,-1.088 m 8.429,-0.495 c -1.267,1.266 -0.663,6.121 0.833,6.695 3.51,1.347 6.283,-2.03 4.461,-5.434 -1.008,-1.885 -3.967,-2.589 -5.294,-1.261 m 7.333,3.5 c 0,4.247 1.131,4.663 1.584,0.583 0.137,-1.238 0.287,-2.587 0.333,-3 0.046,-0.413 0.731,-0.75 1.523,-0.75 0.934,0 1.562,1.316 1.79,3.75 0.266,2.849 0.547,3.329 1.168,1.998 0.45,-0.964 0.536,-2.876 0.191,-4.25 -0.493,-1.965 -1.263,-2.498 -3.608,-2.498 -2.831,0 -2.981,0.21 -2.981,4.167 m 26.713,-3.546 c -1.272,1.271 -0.754,5.1 0.871,6.449 2.28,1.892 4.916,-0.08 4.916,-3.679 0,-2.351 -0.474,-2.946 -2.537,-3.187 -1.396,-0.163 -2.859,0.025 -3.25,0.417 m 7.903,2.129 c 1.261,5.304 2.141,6.016 3.398,2.75 l 1.154,-3 1.225,2.963 c 1.366,3.305 2.082,2.712 2.977,-2.463 l 0.605,-3.5 -1.344,2.889 -1.345,2.888 -0.662,-2.638 c -0.811,-3.232 -2.164,-3.404 -3.058,-0.389 l -0.668,2.25 -0.917,-2.25 c -1.277,-3.136 -2.153,-2.815 -1.365,0.5 m 350.768,-1.308 c -1.464,3.815 2.375,8.289 4.838,5.638 1.054,-1.133 0.984,-1.271 -0.399,-0.787 -0.922,0.324 -2.215,-0.06 -2.872,-0.852 -0.998,-1.202 -0.678,-1.441 1.927,-1.441 3.31,0 3.885,-0.837 1.922,-2.8 -1.647,-1.647 -4.744,-1.509 -5.416,0.242 m 8.005,1.143 c -0.43,1.715 -0.126,3.106 0.904,4.136 1.649,1.649 4.707,1.121 4.707,-0.812 0,-0.863 -0.345,-0.867 -1.367,-0.019 -1.035,0.858 -1.648,0.797 -2.518,-0.251 -1.64,-1.977 -0.264,-4.911 2.023,-4.313 1.024,0.268 1.862,0.079 1.862,-0.42 0,-0.498 -1.116,-0.906 -2.481,-0.906 -1.834,0 -2.65,0.674 -3.13,2.585 m 13.278,-1.918 c -1.232,1.232 -0.682,5.076 0.917,6.403 3.117,2.587 7.024,-2.428 4.376,-5.618 -1.254,-1.511 -4.14,-1.939 -5.293,-0.785 m 8.483,3.583 c 0.117,3.335 0.238,3.604 0.562,1.25 0.227,-1.65 1.145,-3.562 2.041,-4.25 1.454,-1.115 1.393,-1.25 -0.562,-1.25 -1.935,0 -2.173,0.498 -2.041,4.25 M 621.272,561 c 0,2.475 0.195,3.487 0.434,2.25 0.238,-1.237 0.238,-3.263 0,-4.5 -0.239,-1.237 -0.434,-0.225 -0.434,2.25 m 2.846,-0.316 c 0.113,3.643 0.148,3.681 0.758,0.828 0.861,-4.025 3.849,-4.583 4.399,-0.822 0.405,2.768 0.41,2.765 0.318,-0.19 -0.078,-2.501 -0.55,-3.053 -2.843,-3.316 -2.592,-0.299 -2.743,-0.097 -2.632,3.5 m 8.266,-2.242 c -1.464,3.815 2.375,8.289 4.838,5.638 1.054,-1.133 0.984,-1.271 -0.399,-0.787 -0.922,0.324 -2.215,-0.06 -2.872,-0.852 -0.999,-1.204 -0.664,-1.441 2.034,-1.441 2.534,0 3.098,-0.341 2.622,-1.582 -0.334,-0.87 -0.607,-1.77 -0.607,-2 0,-1.155 -5.139,-0.218 -5.616,1.024 M 174,559 c 0,0.55 0.927,1 2.059,1 1.132,0 1.781,-0.45 1.441,-1 -0.34,-0.55 -1.266,-1 -2.059,-1 -0.793,0 -1.441,0.45 -1.441,1 m 8.362,0.5 c -0.801,2.086 0.382,4.751 1.889,4.256 1.964,-0.645 2.217,-5.756 0.284,-5.756 -0.879,0 -1.857,0.675 -2.173,1.5 m 34.132,-0.491 c -0.762,1.233 0.33,4.991 1.451,4.991 1.502,0 3.283,-2.962 2.698,-4.487 -0.658,-1.715 -3.209,-2.025 -4.149,-0.504 M 575.5,559 c -0.34,0.55 0.309,1 1.441,1 1.132,0 2.059,-0.45 2.059,-1 0,-0.55 -0.648,-1 -1.441,-1 -0.793,0 -1.719,0.45 -2.059,1 m 20.832,0.578 c -0.333,0.867 0.057,2.24 0.867,3.05 1.272,1.271 1.634,1.278 2.654,0.049 1.428,-1.721 0.485,-4.677 -1.491,-4.677 -0.784,0 -1.697,0.71 -2.03,1.578 M 633.5,559 c -0.34,0.55 0.309,1 1.441,1 1.132,0 2.059,-0.45 2.059,-1 0,-0.55 -0.648,-1 -1.441,-1 -0.793,0 -1.719,0.45 -2.059,1"></path>
    </clipPath>
  <clipPath id="SvgjsClipPath1294"><rect width="1000" height="1000" x="0" y="0" rx="350" ry="350"></rect></clipPath></defs><path style="fill:#fbbf24" id="rect1" width="203.87572" height="200.05304" x="98.115189" y="49.694706" clip-path="url(#clipPath5)" d="M 98.115189,49.694706 H 301.99091 V 249.74775 H 98.115189 Z" transform="translate(-98.115189,-49.694706)"></path></svg></g></g></svg></g></svg>